<svg id="Layer_2" data-name="Layer 2" xmlns="http://www.w3.org/2000/svg" viewBox="0 0 249.62 77.11"><defs><style>.cls-1{fill-rule:evenodd;}</style></defs><path d="M11,83.64V51h5.85q4.09,5.94,8.1,12t8,12.23V51h5.57V83.64H32.64Q30,79.58,27.32,75.42t-5.41-8.21q-2.68-4.06-5.34-7.9V83.64Z" transform="translate(-10.64 -7.21)"/><path d="M45.06,51H66.88v4.89h-16v8.44H65.14v4.88H50.86v9.54H67.74v4.89H45.06Z" transform="translate(-10.64 -7.21)"/><path d="M71.15,51h6.26q1.32,6.68,2.8,13.35t3.13,13.08q1.72-6.3,3.35-12.55t3.13-12.51h5.7Q97,58.58,98.63,64.74t3.28,12.32q1.65-6.33,3.11-12.91T107.8,51h6.12q-2,8.31-4.16,16.48t-4.61,16.16H99q-1.7-5.85-3.33-11.73t-3.2-11.78Q91,66,89.34,71.88T86,83.64H79.92q-2.39-8-4.57-16.16T71.15,51Z" transform="translate(-10.64 -7.21)"/><path d="M128.23,84.32a23.78,23.78,0,0,1-5.24-.59,19.4,19.4,0,0,1-4.89-1.83V76.61a19.09,19.09,0,0,0,10.23,2.92,9.24,9.24,0,0,0,5.27-1.28,4,4,0,0,0,1.84-3.51,3.89,3.89,0,0,0-.54-2.13,4.59,4.59,0,0,0-1.49-1.41,9.54,9.54,0,0,0-2.14-.94c-.81-.24-1.65-.47-2.53-.68a39.25,39.25,0,0,1-4.41-1.35,14.48,14.48,0,0,1-3.42-1.8,7.08,7.08,0,0,1-2.21-2.6,8.4,8.4,0,0,1-.78-3.79,8.9,8.9,0,0,1,1.51-5.2,9.48,9.48,0,0,1,4.29-3.36,17.17,17.17,0,0,1,6.61-1.16,21.91,21.91,0,0,1,5,.57,17.15,17.15,0,0,1,4.36,1.62v5.16a15.29,15.29,0,0,0-4.27-1.87,19,19,0,0,0-5.18-.69,8.59,8.59,0,0,0-4.84,1.17,3.74,3.74,0,0,0-1.73,3.3,3.47,3.47,0,0,0,.82,2.45,5.69,5.69,0,0,0,2.33,1.41c1,.35,2.17.69,3.51,1s2.86.77,4.18,1.23A14.06,14.06,0,0,1,138,67.46a7.62,7.62,0,0,1,2.4,2.71,8.74,8.74,0,0,1,.87,4.11,9.21,9.21,0,0,1-1.56,5.39,9.83,9.83,0,0,1-4.47,3.44A18.29,18.29,0,0,1,128.23,84.32Z" transform="translate(-10.64 -7.21)"/><path d="M153.09,51h2.83V81.13h17.52v2.51H153.09Z" transform="translate(-10.64 -7.21)"/><path d="M210.37,83.64V51h10.91q5,0,7.71,2.06A7,7,0,0,1,231.68,59a7.4,7.4,0,0,1-1.34,4.49,8.3,8.3,0,0,1-4,2.81,9.55,9.55,0,0,1,5.23,2.9,7.78,7.78,0,0,1,1.84,5.31,8.29,8.29,0,0,1-5.29,8.08,15.46,15.46,0,0,1-6.12,1.1Zm2.79-18.26h7.75a9.13,9.13,0,0,0,5.82-1.62,5.52,5.52,0,0,0,2-4.59q0-5.74-7.8-5.75h-7.8Zm0,15.84h8.58a10.72,10.72,0,0,0,6.52-1.71,5.78,5.78,0,0,0,2.28-4.91q0-6.8-8.71-6.8h-8.67Z" transform="translate(-10.64 -7.21)"/><path d="M248.11,84.32a19.66,19.66,0,0,1-4.81-.62,21.65,21.65,0,0,1-4.72-1.8V79a16.63,16.63,0,0,0,4.51,2.1,18.83,18.83,0,0,0,5.39.73,12.87,12.87,0,0,0,4.77-.8,6.57,6.57,0,0,0,3-2.3,6.17,6.17,0,0,0,1.05-3.61,5.57,5.57,0,0,0-.73-3,5.64,5.64,0,0,0-2-1.9A13.19,13.19,0,0,0,251.86,69c-1-.31-2-.6-3.11-.87s-1.9-.51-2.87-.8a18.8,18.8,0,0,1-2.76-1,9.37,9.37,0,0,1-2.33-1.55,6.59,6.59,0,0,1-1.62-2.26,7.57,7.57,0,0,1-.59-3.15,8.32,8.32,0,0,1,1.36-4.79,8.85,8.85,0,0,1,3.93-3.1,15.19,15.19,0,0,1,6-1.1,19.86,19.86,0,0,1,3.18.25,19.18,19.18,0,0,1,3,.73,14.62,14.62,0,0,1,2.58,1.12v2.87a14.07,14.07,0,0,0-3.88-1.78,18,18,0,0,0-5.11-.68,9.85,9.85,0,0,0-6,1.64,5.46,5.46,0,0,0-2.17,4.61,5.07,5.07,0,0,0,.62,2.63,5.17,5.17,0,0,0,1.71,1.71,11,11,0,0,0,2.6,1.14c1,.3,2.1.61,3.29.91l3,.87a16.61,16.61,0,0,1,2.88,1.14A10.44,10.44,0,0,1,258,69.15a7.11,7.11,0,0,1,1.67,2.37,8.15,8.15,0,0,1,.61,3.31,8.65,8.65,0,0,1-1.48,5.06,9.37,9.37,0,0,1-4.2,3.29A16.62,16.62,0,0,1,248.11,84.32Z" transform="translate(-10.64 -7.21)"/><path class="cls-1" d="M204.15,79,196.43,59.9V53.59h1.22V51.32H184.42v2.27h1.22V59.9L177.92,79a3.66,3.66,0,0,0,3.39,5h19.45a3.66,3.66,0,0,0,3.39-5M201.77,81a1.2,1.2,0,0,1-1,.53H181.31a1.21,1.21,0,0,1-1.13-1.67l7.89-19.52V53.59H194v6.79l7.9,19.52a1.22,1.22,0,0,1-.12,1.14" transform="translate(-10.64 -7.21)"/><path class="cls-1" d="M190.12,74.29a1.7,1.7,0,1,0,1.7,1.7,1.7,1.7,0,0,0-1.7-1.7" transform="translate(-10.64 -7.21)"/><path class="cls-1" d="M189.84,66a2.48,2.48,0,1,0,2.48,2.48A2.48,2.48,0,0,0,189.84,66" transform="translate(-10.64 -7.21)"/><path class="cls-1" d="M194.33,71.3a1.26,1.26,0,1,0,1.26,1.26,1.25,1.25,0,0,0-1.26-1.26" transform="translate(-10.64 -7.21)"/><path id="Fill-8" class="cls-1" d="M106.35,30.53l-.18.08a16.82,16.82,0,0,1-7.92,1.82h0a12.09,12.09,0,0,1-9.06-3.55A10.19,10.19,0,0,1,86.3,22a10.49,10.49,0,0,1,3.44-7.9A12.71,12.71,0,0,1,98.42,11a19.79,19.79,0,0,1,7.51,1.68l.2.08v3.89l-.48-.26a14.46,14.46,0,0,0-7.26-2.07c-4.78,0-8.25,3.16-8.26,7.42s3.34,7.34,8.39,7.36a14.38,14.38,0,0,0,7.34-2.24l.49-.3ZM81.66,36.21h30.81v-29H81.66Z" transform="translate(-10.64 -7.21)"/><path id="Fill-9" class="cls-1" d="M54.23,11.27H60.8A7.69,7.69,0,0,1,66.07,13a5,5,0,0,1,1.68,3.78,4.52,4.52,0,0,1-.87,2.83A5.14,5.14,0,0,1,65.08,21c2.82.77,4.57,2.77,4.56,5.41a5.13,5.13,0,0,1-1.78,3.87,8.63,8.63,0,0,1-5.92,1.85H54.23ZM46.15,36.21H77v-29H46.15Z" transform="translate(-10.64 -7.21)"/><path id="Fill-10" class="cls-1" d="M65.81,26a2.35,2.35,0,0,0-1-2,5.91,5.91,0,0,0-3.41-.82H58v5.7h3.56a5,5,0,0,0,3.44-1A2.46,2.46,0,0,0,65.81,26" transform="translate(-10.64 -7.21)"/><path id="Fill-11" class="cls-1" d="M62.93,19.19a2.43,2.43,0,0,0,1-2.16,2.17,2.17,0,0,0-.7-1.73,4,4,0,0,0-2.73-.77H58v5.41H59.7a5.53,5.53,0,0,0,3.23-.75" transform="translate(-10.64 -7.21)"/><path id="Fill-12" class="cls-1" d="M18.72,11.27h6.57A7.69,7.69,0,0,1,30.56,13a5,5,0,0,1,1.68,3.78,4.52,4.52,0,0,1-.87,2.83A5.1,5.1,0,0,1,29.58,21c2.81.77,4.56,2.77,4.55,5.41a5.15,5.15,0,0,1-1.77,3.87,8.68,8.68,0,0,1-5.93,1.85H18.72ZM10.64,36.21H41.45v-29H10.64Z" transform="translate(-10.64 -7.21)"/><path id="Fill-13" class="cls-1" d="M27.42,19.19a2.43,2.43,0,0,0,1-2.16,2.17,2.17,0,0,0-.7-1.73A4,4,0,0,0,25,14.53H22.46v5.41h1.73a5.53,5.53,0,0,0,3.23-.75" transform="translate(-10.64 -7.21)"/><path id="Fill-14" class="cls-1" d="M30.3,26a2.36,2.36,0,0,0-1-2,5.91,5.91,0,0,0-3.41-.82h-3.4v5.7H26A5.14,5.14,0,0,0,29.47,28,2.5,2.5,0,0,0,30.3,26" transform="translate(-10.64 -7.21)"/></svg>