<svg xmlns="http://www.w3.org/2000/svg" viewBox="0 0 168 84" id="svg-logo-bmbf" width="168px" height="84px">
  <g clip-rule="evenodd" fill-rule="evenodd" stroke-linejoin="round" stroke-miterlimit="1.414">
    <path d="M55.628 12.342V1.027h5.559l-.099 1.131h-4.034V6.34h3.723V7.47h-3.723v4.87h-1.426zm11.97-5.215c0 .339-.01.631-.032.877a23.24 23.24 0 0 1-.066.648h-4.017c.043.93.243 1.613.598 2.05.355.437.867.656 1.533.656.23 0 .438-.027.624-.082a2.35 2.35 0 0 0 1.033-.607l.492.935c-.055.055-.137.134-.246.238-.11.103-.257.207-.443.311a3.177 3.177 0 0 1-.689.27 3.614 3.614 0 0 1-.967.116c-.492 0-.938-.082-1.337-.246a2.528 2.528 0 0 1-1.017-.763c-.278-.344-.494-.782-.647-1.312-.153-.53-.23-1.167-.23-1.91 0-.7.08-1.304.238-1.812.158-.509.374-.927.648-1.255.273-.328.59-.571.95-.73.362-.158.75-.237 1.165-.237.754 0 1.345.237 1.771.713.426.475.64 1.189.64 2.14zm-2.492-1.771c-.47 0-.847.197-1.131.59-.285.394-.449.962-.492 1.706h2.87c.01-.055.019-.134.024-.238a6.52 6.52 0 0 0 .008-.336c0-.547-.11-.97-.328-1.271-.219-.3-.535-.451-.95-.451zM69.01 8.52c0-.798.104-1.465.312-2 .207-.536.475-.968.803-1.296.328-.328.7-.56 1.115-.697a3.97 3.97 0 0 1 1.246-.205c.252 0 .47.019.656.057.186.038.34.085.46.14V.748L74.929.6v11.742h-1.214v-.837h-.032a1.885 1.885 0 0 1-.542.615 2.173 2.173 0 0 1-.574.296c-.23.082-.497.123-.803.123-.372 0-.724-.074-1.058-.222a2.282 2.282 0 0 1-.877-.705c-.252-.323-.451-.738-.599-1.246-.147-.509-.221-1.124-.221-1.845zm3.116 2.837a1.72 1.72 0 0 0 1.287-.541c.082-.088.145-.164.189-.23V5.733a1.983 1.983 0 0 0-.419-.197 1.86 1.86 0 0 0-.598-.082c-.306 0-.593.052-.861.156-.268.104-.5.276-.697.517-.197.24-.353.552-.467.934-.115.383-.173.853-.173 1.41 0 .547.047 1.004.14 1.37.093.366.221.661.385.885.164.225.35.386.558.484.207.099.426.148.656.148zm9.888-4.231c0 .339-.01.631-.033.877a23.24 23.24 0 0 1-.065.648h-4.018c.044.93.243 1.613.599 2.05.355.437.866.656 1.533.656.23 0 .437-.027.623-.082a2.35 2.35 0 0 0 1.033-.607l.492.935c-.055.055-.137.134-.246.238-.11.103-.257.207-.443.311a3.177 3.177 0 0 1-.688.27 3.614 3.614 0 0 1-.968.116c-.492 0-.937-.082-1.336-.246a2.528 2.528 0 0 1-1.017-.763c-.279-.344-.495-.782-.648-1.312-.153-.53-.23-1.167-.23-1.91 0-.7.08-1.304.238-1.812.159-.509.375-.927.648-1.255.273-.328.59-.571.951-.73.361-.158.749-.237 1.165-.237.754 0 1.344.237 1.77.713.427.475.64 1.189.64 2.14zm-2.492-1.771c-.47 0-.848.197-1.132.59-.284.394-.448.962-.492 1.706h2.87c.01-.055.019-.134.025-.238a6.52 6.52 0 0 0 .008-.336c0-.547-.11-.97-.328-1.271-.219-.3-.536-.451-.951-.451zm7.723.279a.948.948 0 0 0-.213-.082 1.595 1.595 0 0 0-.443-.05c-.415 0-.74.113-.975.337a1.965 1.965 0 0 0-.5.73v5.772h-1.329V4.47h1.214v1.066h.033c.054-.153.125-.303.213-.45.087-.148.196-.28.328-.394.13-.115.287-.205.467-.27a1.9 1.9 0 0 1 .648-.1c.186 0 .336.017.45.05.116.033.206.06.271.082l-.164 1.18zm.771 4.706c0-.46.088-.842.262-1.148.175-.306.41-.555.706-.746a3.01 3.01 0 0 1 1.041-.41 6.304 6.304 0 0 1 1.27-.123h.41V7.16c0-.667-.117-1.126-.352-1.378-.235-.251-.566-.377-.992-.377-.393 0-.721.085-.984.254-.262.17-.47.32-.623.451l-.558-.885c.088-.088.2-.186.337-.295.136-.11.303-.214.5-.312s.42-.18.672-.246c.252-.066.536-.098.853-.098.809 0 1.421.224 1.837.672.415.448.623 1.17.623 2.165v3.59c0 .34.01.67.032.993.022.323.044.538.066.648h-1.263l-.049-.87h-.033c-.043.099-.109.211-.196.337-.088.126-.197.24-.328.344a1.97 1.97 0 0 1-.476.27 1.717 1.717 0 0 1-.656.116c-.295 0-.571-.055-.828-.164a2.041 2.041 0 0 1-1.115-1.157 2.405 2.405 0 0 1-.156-.877zm2.378 1.066c.186 0 .35-.027.492-.082.142-.055.265-.12.369-.197.104-.076.191-.161.262-.254.071-.093.134-.172.189-.238V8.898l-.427.016c-.634.022-1.115.132-1.443.328-.328.197-.492.514-.492.952 0 .404.093.707.28.91.185.202.442.303.77.303zm5.936-.902c0 .328.047.558.14.689.093.131.254.197.483.197.12 0 .222-.011.304-.033.082-.022.145-.044.188-.066l.115.984a2.8 2.8 0 0 1-.36.131 2.44 2.44 0 0 1-.706.082c-.448 0-.809-.136-1.082-.41-.273-.273-.41-.76-.41-1.46V.749L96.329.6v9.905zm15.612-9.478v11.315h-1.378V6.963v-1c0-.328.003-.634.009-.919.005-.284.013-.535.024-.754.011-.219.022-.388.033-.508h-.05a18.43 18.43 0 0 1-.335 1.221c-.17.563-.364 1.167-.583 1.812l-1.87 5.527h-1.13l-1.87-5.527a55.083 55.083 0 0 1-.582-1.812c-.17-.563-.282-.97-.336-1.221h-.05a25.158 25.158 0 0 1 .057 1.27c.006.28.009.583.009.91V12.343h-1.377V1.027h1.59l2.673 7.805c.12.361.227.714.32 1.058.093.344.15.642.172.894h.033c.011-.252.063-.547.156-.886.093-.339.2-.688.32-1.05l2.673-7.821h1.492zm3.64 11.315h-1.328V4.47h1.328v7.872zm-.656-9.774c-.273 0-.492-.087-.656-.262-.164-.175-.246-.405-.246-.689 0-.273.082-.497.246-.672.164-.175.383-.263.656-.263.263 0 .476.088.64.263.164.175.246.399.246.672 0 .284-.082.514-.246.689a.837.837 0 0 1-.64.262zm6.986 9.774V7.275c0-.667-.112-1.146-.336-1.435-.224-.29-.566-.435-1.025-.435-.393 0-.721.098-.984.295-.262.197-.47.388-.623.574v6.068h-1.328V4.47h1.213v.886h.033a2.054 2.054 0 0 1 .64-.648 3.01 3.01 0 0 1 .623-.303c.24-.088.514-.131.82-.131.35 0 .667.052.95.155.285.104.526.271.722.5.197.23.35.528.46.894.109.366.164.818.164 1.353v5.166h-1.329zm4.641 0h-1.328V4.47h1.328v7.872zm-.656-9.774c-.273 0-.492-.087-.656-.262-.164-.175-.246-.405-.246-.689 0-.273.082-.497.246-.672.164-.175.383-.263.656-.263.262 0 .476.088.64.263.164.175.246.399.246.672 0 .284-.082.514-.246.689a.837.837 0 0 1-.64.262zm6.084 3.493a3.344 3.344 0 0 0-.476-.402c-.23-.17-.53-.254-.901-.254-.35 0-.618.082-.804.246a.76.76 0 0 0-.279.59c0 .296.085.539.254.73.17.192.43.396.78.615l.491.295c.536.317.957.659 1.263 1.025.306.366.46.84.46 1.419 0 .623-.217 1.148-.649 1.574-.431.426-1.052.64-1.86.64-.318 0-.597-.033-.837-.099a3.65 3.65 0 0 1-.631-.23 2.074 2.074 0 0 1-.451-.286c-.12-.104-.22-.2-.296-.287l.64-1.05c.065.066.145.142.238.23a2.152 2.152 0 0 0 .779.459c.164.055.355.082.574.082.393 0 .694-.088.901-.263a.807.807 0 0 0 .312-.64 1.43 1.43 0 0 0-.074-.483 1.108 1.108 0 0 0-.221-.369 2.062 2.062 0 0 0-.36-.311 19.104 19.104 0 0 0-.493-.328l-.492-.312c-.492-.317-.877-.65-1.156-1-.279-.35-.418-.798-.418-1.345 0-.295.057-.566.172-.812a1.91 1.91 0 0 1 .484-.64c.208-.18.45-.322.73-.426a2.54 2.54 0 0 1 .893-.155 3 3 0 0 1 .787.09 2.355 2.355 0 0 1 .96.508c.104.093.188.172.254.238l-.574.951zm5.707-.508h-1.722v4.362c0 .557.071.937.213 1.14.142.202.383.303.722.303.196 0 .366-.027.508-.082a1.7 1.7 0 0 0 .312-.148l.18 1.066a2.27 2.27 0 0 1-.394.205c-.207.093-.486.14-.836.14-.678 0-1.186-.189-1.525-.566-.339-.377-.508-1.003-.508-1.878V5.553h-.952v-.886l.952-.197.147-2.197h1.18V4.47h1.887l-.164 1.083zm4.969.082a.948.948 0 0 0-.214-.082 1.595 1.595 0 0 0-.442-.05c-.416 0-.741.113-.976.337a1.965 1.965 0 0 0-.5.73v5.772h-1.329V4.47h1.214v1.066h.033c.054-.153.125-.303.213-.45.087-.148.197-.28.328-.394.131-.115.287-.205.467-.27a1.9 1.9 0 0 1 .648-.1c.186 0 .336.017.451.05.115.033.205.06.27.082l-.163 1.18zm6.56-1.165l-2.46 8.33c-.285.963-.632 1.69-1.042 2.182-.41.492-1.003.738-1.78.738-.163 0-.3-.02-.41-.057a2.226 2.226 0 0 1-.229-.09v-1.149c.055.022.126.047.213.074.088.028.203.041.345.041.47 0 .828-.147 1.074-.443.246-.295.456-.748.631-1.36l.115-.41-2.542-7.856h1.427l1.23 4.362c.12.449.23.867.328 1.255.098.388.158.735.18 1.041h.033c.022-.306.074-.65.156-1.033.082-.383.183-.798.303-1.246l1.115-4.379h1.312zM54.987 24.943c0-.722.085-1.345.254-1.87.17-.525.4-.954.69-1.287.289-.334.622-.58 1-.738a3.08 3.08 0 0 1 1.205-.238c.437 0 .841.08 1.213.238.372.158.694.404.968.738.273.333.489.762.647 1.287.159.525.238 1.148.238 1.87 0 .732-.082 1.36-.246 1.885-.164.525-.39.954-.68 1.288-.29.333-.626.576-1.009.73-.383.153-.787.23-1.213.23-.438 0-.842-.077-1.214-.23a2.446 2.446 0 0 1-.967-.73c-.274-.334-.49-.76-.648-1.28-.159-.519-.238-1.15-.238-1.893zm4.838 0c0-1.05-.153-1.813-.46-2.288-.306-.476-.732-.713-1.279-.713-.546 0-.97.237-1.27.713-.301.475-.451 1.238-.451 2.288 0 1.05.153 1.803.459 2.263.306.459.732.688 1.279.688.546 0 .97-.23 1.27-.688.301-.46.452-1.214.452-2.263zm6.264-2.854h-1.607v6.79h-1.328v-6.79h-.952v-.885l.952-.18v-1.575c0-.426.06-.793.18-1.099.12-.306.279-.557.476-.754a1.74 1.74 0 0 1 .688-.426c.263-.088.541-.132.837-.132.284 0 .524.039.721.115.197.077.328.137.394.18l-.279 1.1a1.635 1.635 0 0 0-.279-.14 1.172 1.172 0 0 0-.443-.074c-.317 0-.557.099-.721.295-.164.197-.246.558-.246 1.083v1.41h1.771l-.164 1.082zm10.233-3.394h-4.034v3.903h3.706v1.131h-3.706v3.969h4.444l-.082 1.18h-5.789V17.563h5.56l-.1 1.132zm1.558 6.362c0-.798.104-1.465.311-2 .208-.536.476-.968.804-1.296.328-.328.7-.56 1.115-.697a3.97 3.97 0 0 1 1.246-.205c.252 0 .47.02.656.058.186.038.339.084.46.14v-3.773l1.328-.147v11.741h-1.214v-.836h-.033a1.885 1.885 0 0 1-.54.615 2.173 2.173 0 0 1-.575.295c-.23.082-.497.123-.803.123-.372 0-.725-.074-1.058-.221a2.282 2.282 0 0 1-.877-.706c-.252-.322-.451-.737-.599-1.246-.147-.508-.221-1.123-.221-1.845zm3.115 2.837a1.72 1.72 0 0 0 1.287-.541c.083-.087.146-.164.19-.23V22.27a1.983 1.983 0 0 0-.419-.197 1.86 1.86 0 0 0-.598-.082c-.306 0-.594.052-.861.156-.268.103-.5.276-.697.516-.197.24-.353.552-.468.935-.114.383-.172.853-.172 1.41 0 .547.047 1.003.14 1.37.092.366.22.66.385.885.164.224.35.385.557.484.208.098.427.147.656.147zm10.348.984h-1.213v-.885h-.033a2.139 2.139 0 0 1-.631.648c-.17.114-.375.215-.616.303-.24.087-.508.131-.803.131-.35 0-.664-.052-.943-.156a1.715 1.715 0 0 1-.713-.5c-.197-.23-.348-.527-.451-.894-.104-.366-.156-.817-.156-1.353v-5.165h1.328v5.067c0 .656.107 1.123.32 1.402.213.279.544.418.992.418.383 0 .705-.095.968-.287.262-.191.47-.38.623-.565v-6.035h1.328v7.871zm6.412-6.346a6.06 6.06 0 0 0-.156-.148 1.659 1.659 0 0 0-.27-.196 1.887 1.887 0 0 0-.394-.173 1.714 1.714 0 0 0-.525-.073c-.284 0-.55.052-.795.155-.246.104-.46.271-.64.5-.18.23-.322.528-.426.894-.104.367-.156.812-.156 1.337 0 .58.047 1.066.14 1.46.093.393.22.707.385.942.164.235.363.405.599.508.235.104.494.156.778.156.405 0 .714-.07.927-.213.213-.142.363-.257.45-.344l.542.918a2.414 2.414 0 0 1-.238.238 2.048 2.048 0 0 1-.401.27 2.7 2.7 0 0 1-.599.222c-.235.06-.506.09-.812.09-.437 0-.847-.071-1.23-.213a2.432 2.432 0 0 1-1-.705c-.284-.328-.508-.755-.672-1.28-.164-.524-.246-1.175-.246-1.95 0-.755.098-1.395.295-1.92.197-.524.454-.948.77-1.27.318-.323.67-.558 1.058-.706a3.276 3.276 0 0 1 1.173-.22c.295 0 .555.026.779.081.224.055.415.123.574.205.158.082.29.17.393.262.104.093.189.173.254.238l-.557.935zm1.492 4.346c0-.46.088-.842.263-1.148.174-.306.41-.555.705-.746a3.01 3.01 0 0 1 1.041-.41 6.304 6.304 0 0 1 1.27-.123h.41v-.755c0-.667-.117-1.126-.352-1.377-.235-.252-.565-.377-.992-.377-.393 0-.721.084-.984.254-.262.17-.47.32-.623.45l-.557-.885c.087-.087.2-.186.336-.295.136-.11.303-.213.5-.312a3.384 3.384 0 0 1 1.525-.344c.809 0 1.421.224 1.837.672.415.449.623 1.17.623 2.165v3.591c0 .34.01.67.033.992.022.323.043.539.065.648h-1.263l-.049-.869h-.033c-.043.099-.109.21-.196.336-.088.126-.197.24-.328.345a1.97 1.97 0 0 1-.476.27 1.717 1.717 0 0 1-.656.115c-.295 0-.571-.055-.828-.164a2.041 2.041 0 0 1-1.115-1.156 2.405 2.405 0 0 1-.156-.877zm2.378 1.066c.186 0 .35-.028.492-.082.142-.055.265-.12.369-.197.104-.077.191-.161.262-.254.071-.093.134-.173.189-.238v-1.738l-.426.016c-.635.022-1.116.131-1.444.328-.328.197-.492.514-.492.951 0 .404.093.708.28.91.185.202.442.304.77.304zm7.986-5.855h-1.722v4.362c0 .558.071.938.213 1.14.143.202.383.303.722.303.197 0 .366-.027.508-.082a1.7 1.7 0 0 0 .312-.147l.18 1.066a2.27 2.27 0 0 1-.393.205c-.208.093-.487.14-.837.14-.677 0-1.186-.19-1.525-.567-.338-.377-.508-1.003-.508-1.877v-4.543h-.951v-.885l.951-.197.148-2.198h1.18v2.198h1.886l-.164 1.082zm2.837 6.79h-1.328v-7.872h1.328v7.871zm-.656-9.774c-.273 0-.492-.088-.656-.263-.164-.175-.246-.404-.246-.688 0-.274.082-.498.246-.673.164-.175.383-.262.656-.262.263 0 .476.087.64.262.164.175.246.4.246.673 0 .284-.082.513-.246.688a.837.837 0 0 1-.64.263zm2.329 5.838c0-.722.085-1.345.254-1.87.17-.525.399-.954.689-1.287.29-.334.623-.58 1-.738a3.08 3.08 0 0 1 1.205-.238c.438 0 .842.08 1.214.238.372.158.694.404.967.738.274.333.49.762.648 1.287.159.525.238 1.148.238 1.87 0 .732-.082 1.36-.246 1.885-.164.525-.39.954-.68 1.288-.29.333-.626.576-1.01.73-.382.153-.786.23-1.213.23-.437 0-.841-.077-1.213-.23a2.446 2.446 0 0 1-.968-.73c-.273-.334-.489-.76-.647-1.28-.159-.519-.238-1.15-.238-1.893zm4.837 0c0-1.05-.153-1.813-.459-2.288-.306-.476-.732-.713-1.279-.713-.546 0-.97.237-1.27.713-.301.475-.452 1.238-.452 2.288 0 1.05.153 1.803.46 2.263.306.459.732.688 1.279.688.546 0 .97-.23 1.27-.688.301-.46.451-1.214.451-2.263zm7.347 3.935v-5.067c0-.667-.112-1.145-.336-1.435-.224-.29-.566-.434-1.025-.434-.394 0-.722.098-.984.295-.262.197-.47.388-.623.574v6.067h-1.328v-7.871h1.213v.885h.033a2.054 2.054 0 0 1 .64-.648 3.01 3.01 0 0 1 .623-.303c.24-.087.513-.13.82-.13.35 0 .666.051.95.155.285.104.525.27.722.5.197.23.35.528.46.894.109.366.163.817.163 1.353v5.165h-1.328zM54.89 43.414c0-.459.087-.842.262-1.148.175-.306.41-.555.705-.746a3.01 3.01 0 0 1 1.042-.41 6.304 6.304 0 0 1 1.27-.123h.41v-.754c0-.667-.117-1.126-.352-1.378-.235-.251-.566-.377-.992-.377-.394 0-.722.085-.984.254-.263.17-.47.32-.623.451l-.558-.885c.088-.088.2-.186.336-.295.137-.11.304-.214.5-.312a3.384 3.384 0 0 1 1.525-.344c.81 0 1.422.224 1.837.672.416.448.623 1.17.623 2.165v3.59c0 .34.011.67.033.993.022.323.044.539.066.648h-1.263l-.05-.87h-.032c-.044.1-.11.211-.197.337-.087.126-.197.24-.328.344a1.97 1.97 0 0 1-.475.27 1.717 1.717 0 0 1-.656.116c-.295 0-.571-.055-.828-.164a2.041 2.041 0 0 1-1.115-1.157 2.405 2.405 0 0 1-.156-.877zm2.377 1.066c.186 0 .35-.027.492-.082.143-.055.266-.12.37-.197.103-.076.19-.16.262-.254.07-.093.134-.172.188-.238v-1.738l-.426.016c-.634.022-1.115.132-1.443.328-.328.197-.492.514-.492.952 0 .404.093.707.279.91.186.202.443.303.77.303zm8.921.935v-5.067c0-.667-.112-1.146-.336-1.435-.224-.29-.566-.435-1.025-.435-.393 0-.721.099-.984.295-.262.197-.47.388-.623.574v6.068h-1.328v-7.872h1.213v.886h.033a2.054 2.054 0 0 1 .64-.648 3.01 3.01 0 0 1 .623-.303c.24-.088.514-.131.82-.131.35 0 .667.052.951.155.284.104.525.271.722.5.196.23.35.528.459.894.109.367.164.818.164 1.353v5.166h-1.329zm2.952-3.821c0-.798.104-1.465.312-2 .207-.536.475-.968.803-1.296.328-.328.7-.56 1.115-.697a3.97 3.97 0 0 1 1.247-.205c.251 0 .47.019.656.057.186.038.338.085.459.14V33.82l1.328-.148v11.742h-1.213v-.837h-.033a1.885 1.885 0 0 1-.541.615 2.173 2.173 0 0 1-.574.296c-.23.082-.498.123-.804.123-.372 0-.724-.074-1.058-.222a2.282 2.282 0 0 1-.877-.705c-.251-.322-.45-.738-.598-1.246-.148-.509-.222-1.124-.222-1.845zm3.116 2.837a1.72 1.72 0 0 0 1.287-.541c.082-.088.145-.164.189-.23v-4.854a1.983 1.983 0 0 0-.418-.197 1.86 1.86 0 0 0-.599-.082c-.306 0-.593.052-.86.156-.269.104-.501.276-.698.517-.197.24-.352.552-.467.934-.115.383-.172.853-.172 1.41 0 .547.046 1.004.14 1.37.092.366.22.661.384.885.164.225.35.386.558.484.208.099.426.148.656.148zm13.758.984l-2.345-4.641a9.374 9.374 0 0 1-.77.033h-.623v4.608h-1.427V34.1h2.115c1.367 0 2.375.265 3.026.795.65.53.976 1.32.976 2.37 0 .754-.159 1.399-.476 1.935-.317.535-.804.945-1.46 1.23l2.657 4.985h-1.673zm-.574-8.068c0-.722-.2-1.255-.598-1.6-.4-.344-1.025-.516-1.878-.516h-.688v4.444h.623c.863 0 1.503-.202 1.918-.607.416-.404.623-.978.623-1.721zM93.92 40.2c0 .339-.011.631-.033.877a23.24 23.24 0 0 1-.066.648h-4.017c.043.93.243 1.613.598 2.05.355.437.867.656 1.533.656.23 0 .438-.027.624-.082a2.35 2.35 0 0 0 1.033-.607l.492.935c-.055.055-.137.134-.246.238-.11.103-.257.207-.443.311a3.177 3.177 0 0 1-.689.27 3.614 3.614 0 0 1-.967.116c-.492 0-.938-.082-1.337-.246a2.528 2.528 0 0 1-1.017-.763c-.278-.344-.494-.782-.647-1.312-.153-.53-.23-1.167-.23-1.91 0-.7.08-1.304.238-1.812.158-.509.374-.927.648-1.255.273-.328.59-.571.95-.73.361-.158.75-.237 1.165-.237.754 0 1.345.237 1.771.713.426.475.64 1.189.64 2.14zm-2.493-1.771c-.47 0-.847.197-1.132.59-.284.394-.448.962-.491 1.706h2.87c.01-.055.018-.134.024-.238a6.52 6.52 0 0 0 .008-.336c0-.547-.11-.97-.328-1.271-.219-.3-.536-.451-.951-.451zm7.658.705a3.344 3.344 0 0 0-.475-.402c-.23-.17-.53-.254-.902-.254-.35 0-.618.082-.804.246a.76.76 0 0 0-.279.59c0 .296.085.539.255.73.169.192.429.396.779.615l.491.295c.536.317.957.659 1.263 1.025.306.366.46.84.46 1.419 0 .623-.217 1.148-.648 1.574-.432.426-1.053.64-1.862.64-.317 0-.596-.033-.836-.099a3.65 3.65 0 0 1-.631-.23 2.074 2.074 0 0 1-.451-.286c-.12-.104-.219-.2-.295-.287l.64-1.05c.065.066.144.142.237.23a2.152 2.152 0 0 0 .779.459c.164.055.355.082.574.082.393 0 .694-.088.902-.263a.807.807 0 0 0 .311-.64 1.43 1.43 0 0 0-.073-.483 1.108 1.108 0 0 0-.222-.369 2.062 2.062 0 0 0-.36-.311 19.104 19.104 0 0 0-.493-.328l-.492-.312c-.492-.317-.877-.65-1.156-1-.278-.35-.418-.798-.418-1.345 0-.295.058-.566.172-.812a1.91 1.91 0 0 1 .484-.64c.208-.18.451-.322.73-.426a2.54 2.54 0 0 1 .894-.155 3 3 0 0 1 .787.09 2.355 2.355 0 0 1 .959.508c.104.093.189.172.254.238l-.574.951zm7.396 1.066c0 .339-.011.631-.033.877a23.24 23.24 0 0 1-.065.648h-4.018c.044.93.243 1.613.599 2.05.355.437.866.656 1.533.656.23 0 .437-.027.623-.082a2.35 2.35 0 0 0 1.033-.607l.492.935c-.055.055-.137.134-.246.238-.11.103-.257.207-.443.311a3.177 3.177 0 0 1-.688.27 3.614 3.614 0 0 1-.968.116c-.492 0-.937-.082-1.336-.246a2.528 2.528 0 0 1-1.017-.763c-.279-.344-.495-.782-.648-1.312-.153-.53-.23-1.167-.23-1.91 0-.7.08-1.304.238-1.812.159-.509.375-.927.648-1.255.273-.328.59-.571.951-.73.36-.158.749-.237 1.164-.237.755 0 1.345.237 1.771.713.427.475.64 1.189.64 2.14zm-2.493-1.771c-.47 0-.847.197-1.131.59-.284.394-.448.962-.492 1.706h2.87c.01-.055.019-.134.024-.238a6.52 6.52 0 0 0 .009-.336c0-.547-.11-.97-.328-1.271-.22-.3-.536-.451-.952-.451zm3.805 4.985c0-.459.087-.842.262-1.148.175-.306.41-.555.705-.746a3.01 3.01 0 0 1 1.042-.41 6.304 6.304 0 0 1 1.27-.123h.41v-.754c0-.667-.117-1.126-.352-1.378-.235-.251-.566-.377-.992-.377-.394 0-.722.085-.984.254-.262.17-.47.32-.623.451l-.558-.885c.088-.088.2-.186.337-.295.136-.11.303-.214.5-.312a3.384 3.384 0 0 1 1.525-.344c.809 0 1.42.224 1.836.672.416.448.624 1.17.624 2.165v3.59c0 .34.01.67.032.993.022.323.044.539.066.648h-1.263l-.049-.87h-.033c-.043.1-.11.211-.197.337-.087.126-.196.24-.328.344a1.97 1.97 0 0 1-.475.27 1.717 1.717 0 0 1-.656.116c-.295 0-.571-.055-.828-.164a2.041 2.041 0 0 1-1.115-1.157 2.405 2.405 0 0 1-.156-.877zm2.378 1.066c.186 0 .35-.027.492-.082.142-.055.265-.12.369-.197.103-.076.191-.16.262-.254.071-.093.134-.172.189-.238v-1.738l-.427.016c-.634.022-1.115.132-1.443.328-.328.197-.492.514-.492.952 0 .404.093.707.279.91.186.202.443.303.77.303zm8.084-5.772a.948.948 0 0 0-.213-.082 1.595 1.595 0 0 0-.443-.05c-.415 0-.74.113-.975.337a1.965 1.965 0 0 0-.5.73v5.772h-1.329v-7.872h1.214v1.066h.032c.055-.153.126-.303.214-.45.087-.148.196-.28.328-.394.13-.115.287-.205.467-.27a1.9 1.9 0 0 1 .648-.1c.186 0 .336.017.45.05.116.033.206.06.271.082l-.164 1.18zm5.494.36a6.06 6.06 0 0 0-.156-.147 1.659 1.659 0 0 0-.27-.197 1.887 1.887 0 0 0-.394-.172 1.714 1.714 0 0 0-.525-.074c-.284 0-.55.052-.795.156-.246.104-.46.27-.64.5-.18.23-.322.528-.426.894-.104.366-.156.812-.156 1.336 0 .58.047 1.066.14 1.46.092.393.22.708.385.943.164.235.363.404.599.508.234.104.494.156.778.156.405 0 .714-.071.927-.213.213-.142.363-.257.45-.345l.542.919a2.414 2.414 0 0 1-.238.237 2.048 2.048 0 0 1-.402.271 2.7 2.7 0 0 1-.598.221c-.235.06-.506.09-.812.09-.437 0-.847-.07-1.23-.213a2.432 2.432 0 0 1-1-.705c-.284-.328-.508-.754-.672-1.279-.164-.525-.246-1.175-.246-1.951 0-.755.098-1.394.295-1.919.197-.525.453-.948.77-1.27.318-.323.67-.558 1.058-.706a3.276 3.276 0 0 1 1.173-.221c.295 0 .555.027.779.082.224.054.415.123.574.205.158.082.29.169.393.262.104.093.189.172.254.238l-.557.934zm6.248 6.347v-5.067c0-.667-.112-1.146-.336-1.435-.225-.29-.566-.435-1.025-.435-.394 0-.722.099-.984.295-.263.197-.47.388-.623.574v6.068h-1.329V33.82l1.329-.148v4.674h.032c.044-.066.112-.153.205-.262.093-.11.222-.22.386-.328a2.515 2.515 0 0 1 1.427-.41c.688 0 1.235.224 1.64.672.404.448.606 1.192.606 2.23v5.166h-1.328zM19.43 11.43c.038-.308.06-.626.06-.951 0-.178.001-.385-.021-.62 2.746-.038 5.155-2.017 5.155-4.292 0-1.157-.755-2.03-1.18-2.553.094-.02.19-.043.289-.066.402.35 1.543 1.593 1.543 3.162 0 2.73-2.728 5.264-5.846 5.32m-2.767-9.506a1.873 1.873 0 0 0-.343-.817c.01-.279.124-.545.572-.326-.242.248-.055.688-.055.688s.496-.23.393-.558c.736.176.206 1.164-.567 1.013m-.638 1.401a2.877 2.877 0 0 0-.573-1.142c-.243-.287-.644-.627-1.184-.627-.246 0-.66.116-.923.227-.098-.179-.29-.61-.29-.805 0-.2.338-.402.985-.402 1.422 0 2.27.642 2.27 1.72 0 .379-.15.723-.285 1.03m3.652 18.327a.84.84 0 0 1 .342.062c.41 1.114 1.987 3.215 2.053 3.305l.014.019.023-.005c.388-.062 1.376-.211 2.202-.211h.02c.09 0 .191 0 .256.063.054.054.08.148.08.281 0 .206-.087.557-.192.707-.289-.315-.759-.457-1.511-.457-.226 0-.494.067-.638.106l-.06.012-.067.018.434.434c.67.67 1.248 1.247 1.248 1.632 0 .231-.226.533-.432.667-.046-.704-.757-1.647-1.45-2.175l-.06-.044-.01.248c-.01.168-.025.42-.025.69 0 1.341-.136 1.545-.6 1.545a.848.848 0 0 1-.249-.045c.262-.324.365-.751.365-1.5l-.004-.347-.004-.278c0-.307.032-.535.057-.718l.013-.103-.073-.01a7.522 7.522 0 0 0-.93-.086c-.663 0-1.112.061-1.437.367-.215-.174-.436-.473-.436-.661 0-.28.174-.302.403-.302.115 0 .223.016.372.034.285.043.714.106 1.597.106h.055l-.018-.053c-.223-.641-.838-1.573-1.823-2.77.088-.321.175-.53.485-.53m-8.508 3.3l-.018.053h.055c.882 0 1.312-.063 1.597-.106.15-.018.257-.034.372-.034.228 0 .403.022.403.302 0 .188-.22.487-.434.661-.327-.306-.776-.367-1.438-.367-.31 0-.715.056-.931.086l-.035.004-.038.006.012.103c.026.183.058.41.058.718l-.004.278-.004.346c0 .75.103 1.177.366 1.5a.865.865 0 0 1-.249.046c-.466 0-.6-.204-.6-1.544 0-.27-.015-.523-.024-.69l-.014-.25-.058.045c-.692.528-1.405 1.47-1.448 2.175-.208-.134-.434-.436-.434-.667 0-.385.578-.962 1.248-1.632l.385-.384.05-.05-.127-.03a2.703 2.703 0 0 0-.64-.106c-.75 0-1.22.142-1.51.457-.105-.15-.192-.501-.192-.707 0-.133.026-.227.08-.28.065-.064.167-.064.256-.064h.02c.827 0 1.816.149 2.202.21l.023.006.014-.02c.068-.089 1.644-2.19 2.055-3.304a.823.823 0 0 1 .34-.062c.31 0 .397.21.487.53-.987 1.198-1.602 2.13-1.825 2.77M6.909 6.11c0-1.57 1.142-2.812 1.544-3.162.096.023.193.045.29.066-.428.522-1.183 1.396-1.183 2.553 0 2.299 2.456 4.294 5.237 4.294a6.832 6.832 0 0 0-.028.618c0 .339.02.654.052.952-3.144-.02-5.913-2.572-5.913-5.32M28 10.95c1.412 2.231 2.515 2.194 4.183 2.194-1.38-1.057-2.292-2.411-2.727-3.103l-2.577-4.123a6.099 6.099 0 0 0-1.896-3.35c.332-.126.607-.258.773-.383-1.683 0-3.35-.855-4.268-.855-.59 0-.969.353-.969.819.037.52.572 1.047 1.56 1.047.223 0 .51-.029.824-.081.535.745.966 1.42.966 2.381 0 1.805-2.158 3.212-4.337 3.212-.124 0-.24-.005-.363-.014-.197-.447-.855-1.198-.855-2.053 0-1.434.936-2.606.936-4.026 0-.884-.43-1.43-.595-1.658.267-.248.56-.553.628-.762-.156.067-.34.075-.61.075C17.63.271 16.779 0 15.949 0c-.474 0-.6.146-.6.285 0 .051.006.104.02.128a2.794 2.794 0 0 0-.539-.15 4.208 4.208 0 0 0-.79-.07c-1.008 0-1.367.423-1.367.785 0 .306.242.866.516 1.293.393-.198.865-.332 1.08-.332.536 0 1.012.51 1.264 1.113-.36.044-.429.06-.792.06-.983 0-1.651-.352-1.79-.352-.012 0-.038.007-.038.03 0 .137.279.5.827.7.724.265 1.807.375 1.987.406 0 .031-.183.373-.388.44a.223.223 0 0 1-.129.003c-.755-.148-.966-.212-1.923-.576-.03-.01-.047.007-.047.038 0 .379.981 1.215 1.86 1.536-.734.937-1.65 1.896-2.083 3.358a5.349 5.349 0 0 1-.364.014c-2.179 0-4.337-1.407-4.337-3.212 0-.962.431-1.636.966-2.381.314.052.6.081.824.081.988 0 1.523-.528 1.562-1.047 0-.466-.38-.819-.97-.819-.918 0-2.584.855-4.27.855.167.125.443.257.773.383a6.105 6.105 0 0 0-1.895 3.35L2.73 10.042c-.435.692-1.35 2.046-2.729 3.103 1.667 0 2.773.037 4.184-2.194l1.321-2.114c.098.275.218.542.36.804l-2.628 4.204c-.437.697-1.344 2.04-2.729 3.104 1.668 0 2.773.038 4.184-2.192l2.262-3.621c.17.18.347.357.534.525l-3.191 5.11c-.438.698-1.34 2.038-2.727 3.1 1.667 0 2.772.04 4.182-2.19l3.112-4.982c.205.13.414.255.632.373l-3.8 6.079c-.437.698-1.339 2.034-2.726 3.1 1.667 0 2.772.039 4.183-2.19l3.911-6.261c.232.088.466.173.704.25L7.35 21.122c-.431.689-1.353 2.049-2.726 3.1 1.666 0 2.773.039 4.183-2.19l4.71-7.539c.048.009.095.015.142.025.128.408.218.788.218 1.167 0 2.37-1.555 4.461-3.42 6.076.12.052.327.07.519.07.386 0 .634-.02.809-.05-.433.982-1.362 2.251-1.83 2.907-.61-.11-1.5-.196-2.081-.196-.61 0-.678.356-.678.674 0 .553.259.992.56 1.238.112-.283.34-.66 1.464-.66.022 0 .06.002.113.006-.328.366-1.357 1.198-1.357 1.868 0 .443.486 1.11 1.127 1.11-.037-.144-.033-.275-.033-.374 0-.543.48-1.179.887-1.622-.012.132-.005.118-.005.273 0 1.282.116 1.872.93 1.872.4 0 .675-.219.77-.285-.529-.486-.556-.87-.556-1.589l.005-.623a3.495 3.495 0 0 0-.027-.54c.29-.04.409-.04.633-.04 0 0 1.157-.092 1.436.51.315-.288.77-.695.77-1.142 0-.297-.14-.632-.737-.632-.226 0-.935.138-1.53.138.16-.354.87-1.393 1.486-2.147.094.292.239.608.561.867.046-.485.33-2.019 1.088-2.916.088.606.206 1.228.206 2.538 0 3.19-.766 5.544-2.393 5.994.212.368.66.7 1.124.7.595 0 .92-.674 1.25-1.31.172.469.648 1.618 1.124 1.618.477 0 .954-1.149 1.126-1.618.33.636.655 1.31 1.25 1.31.465 0 .912-.332 1.125-.7-1.628-.45-2.395-2.805-2.395-5.994 0-1.31.118-1.932.206-2.538.76.897 1.045 2.431 1.088 2.916.323-.259.47-.575.562-.867.614.754 1.326 1.793 1.485 2.147-.594 0-1.305-.138-1.53-.138-.595 0-.735.335-.735.632 0 .447.456.854.77 1.142.277-.602 1.436-.51 1.436-.51.223 0 .342 0 .634.04a3.331 3.331 0 0 0-.028.54l.005.623c0 .72-.028 1.103-.557 1.589.095.066.37.285.77.285.815 0 .932-.59.932-1.872 0-.155.004-.141-.007-.273.406.443.887 1.079.887 1.622 0 .099.006.23-.034.373.642 0 1.13-.666 1.13-1.11 0-.669-1.03-1.501-1.36-1.867.053-.004.092-.006.113-.006 1.126 0 1.353.377 1.466.66a1.6 1.6 0 0 0 .56-1.238c0-.318-.07-.674-.679-.674-.581 0-1.469.086-2.08.196-.47-.656-1.396-1.925-1.83-2.908.175.03.424.051.808.051.193 0 .4-.018.52-.07-1.866-1.615-3.42-3.707-3.42-6.076 0-.379.09-.759.217-1.167.046-.01.095-.016.142-.025l4.71 7.538c1.41 2.23 2.517 2.191 4.183 2.191-1.373-1.051-2.295-2.411-2.726-3.1l-4.42-7.074c.24-.076.475-.161.706-.25l3.91 6.261c1.41 2.23 2.516 2.191 4.184 2.191-1.388-1.066-2.29-2.402-2.728-3.1l-3.798-6.079c.215-.118.426-.244.63-.373l3.113 4.981c1.411 2.231 2.515 2.191 4.183 2.191-1.388-1.062-2.288-2.402-2.728-3.1l-3.191-5.11c.187-.168.366-.345.533-.525l2.264 3.621c1.41 2.23 2.515 2.192 4.183 2.192-1.387-1.064-2.29-2.407-2.729-3.104l-2.626-4.204c.14-.262.26-.53.36-.804zM45.375 28.878h-4.823V1.318h4.823z"/>
    <path d="M45.375 56.44h-4.823V28.877h4.823z" fill="red"/>
    <path d="M45.375 84h-4.823V56.44h4.823z" fill="#fc0"/>
  </g>
</svg>