<?xml version="1.0" encoding="UTF-8"?>
<!-- Generator: Adobe Illustrator 22.1.0, SVG Export Plug-In . SVG Version: 6.00 Build 0)  -->
<svg version="1.1" id="Layer_1" xmlns="http://www.w3.org/2000/svg" xmlns:xlink="http://www.w3.org/1999/xlink" x="0px" y="0px" viewBox="0 0 176 58.6" style="enable-background:new 0 0 176 58.6;" xml:space="preserve">
<style type="text/css">
	.st0{fill:#1D1D1B;}
</style>
<g>
	<path class="st0" d="M25.4,32.5h5.1v-5.2h-5.1V32.5z M30.5,7.6h-5.1v16h5.1V7.6z"/>
</g>
<path class="st0" d="M75.8,21.1c-1.8,1.6-3.4,2.3-5.7,2.3c-2.3,0-4.1-0.8-5.5-2.3c-1.3-1.4-2.1-3.5-2.1-5.6c0-4.7,3.2-8,7.6-8  c2.4,0,4,0.7,5.8,2.4l-2,2.1c-1.2-1.1-2.3-1.6-3.6-1.6c-2.7,0-4.6,2.1-4.6,5s2,5.1,4.7,5.1c1.4,0,2.5-0.5,3.4-1.6L75.8,21.1z"/>
<path class="st0" d="M90.4,10.1c1.3,1.5,1.9,3.2,1.9,5.5c0,4.4-3.5,7.9-7.8,7.9c-4.5,0-8-3.5-8-7.9c0-4.5,3.5-8,8-8  C86.8,7.5,88.9,8.4,90.4,10.1z M79.8,15.5c0,2.8,2,5,4.7,5c2.6,0,4.7-2.2,4.7-4.9c0-3-2-5.1-4.7-5.1C81.8,10.4,79.8,12.6,79.8,15.5z  "/>
<path class="st0" d="M97.7,23.1h-3.1V7.8h4.7c3.8,0,5.8,1.7,5.8,4.8c0,2.4-1.3,4-3.6,4.6l4.2,5.9h-3.8L97.6,17L97.7,23.1L97.7,23.1z   M99.1,15.2c1.8,0,2.8-0.9,2.8-2.4c0-1.5-1-2.4-2.5-2.4h-1.7v4.8H99.1z"/>
<path class="st0" d="M110.9,23.1h-3.1V7.8h4.7c3.8,0,5.8,1.7,5.8,4.8c0,2.4-1.3,4-3.6,4.6l4.2,5.9h-3.8l-4.2-6.1L110.9,23.1  L110.9,23.1z M112.4,15.2c1.8,0,2.8-0.9,2.8-2.4c0-1.5-1-2.4-2.5-2.4H111v4.8H112.4z"/>
<path class="st0" d="M124.1,14.1h5.4v2.6h-5.4v3.8h5.4v2.6H121V7.8h8.5v2.6h-5.4V14.1z"/>
<path class="st0" d="M144.7,21.1c-1.8,1.6-3.4,2.3-5.7,2.3c-2.3,0-4.1-0.8-5.5-2.3c-1.3-1.4-2.1-3.5-2.1-5.6c0-4.7,3.2-8,7.6-8  c2.4,0,4,0.7,5.8,2.4l-2,2.1c-1.2-1.1-2.3-1.6-3.6-1.6c-2.7,0-4.6,2.1-4.6,5s2,5.1,4.7,5.1c1.4,0,2.5-0.5,3.4-1.6L144.7,21.1z"/>
<path class="st0" d="M152.6,23.1h-3.1V10.4h-3.6V7.8h10.4v2.6h-3.6L152.6,23.1L152.6,23.1z"/>
<path class="st0" d="M161.4,23.1h-3.1V7.8h3.1V23.1z"/>
<path class="st0" d="M172.8,7.8h3.2l-4.8,15.3h-3.3l-4.6-15.3h3.2l3.1,10.2L172.8,7.8z"/>
<g>
	<path class="st0" d="M65,34.1v3.7h-1.1v-8.9h2.4c1.1,0,1.9,0.3,2.4,0.9c0.4,0.5,0.6,1,0.6,1.7c0,0.7-0.2,1.2-0.6,1.6   c-0.3,0.4-0.8,0.7-1.4,0.8c-0.2,0.1-0.6,0.1-1,0.1l3.5,3.7h-1.4L65,34.1z M65,33.4h1.1c0.6,0,1.1-0.1,1.5-0.4   c0.4-0.3,0.6-0.7,0.6-1.3c0-0.5-0.2-1-0.5-1.3s-0.8-0.4-1.4-0.4H65L65,33.4L65,33.4z"/>
	<path class="st0" d="M77.1,35.1h-5.1c0,0.5,0.2,0.8,0.4,1.1c0.4,0.5,1,0.8,1.6,0.8c0.5,0,0.9-0.1,1.3-0.4c0.2-0.2,0.4-0.4,0.5-0.6   l0.9,0.3c-0.2,0.4-0.5,0.7-0.8,1C75.4,37.8,74.7,38,74,38c-1,0-1.8-0.4-2.4-1.1c-0.5-0.6-0.7-1.3-0.7-2.1c0-1,0.3-1.7,0.9-2.3   c0.6-0.6,1.3-0.9,2.2-0.9c1.1,0,1.9,0.4,2.5,1.2c0.4,0.6,0.6,1.2,0.6,2C77.1,34.8,77.1,34.9,77.1,35.1z M76,34.3   c0-0.4-0.2-0.8-0.4-1.1c-0.2-0.3-0.4-0.4-0.7-0.6c-0.3-0.2-0.6-0.3-1-0.3c-0.5,0-0.9,0.1-1.3,0.4c-0.4,0.3-0.6,0.8-0.7,1.5L76,34.3   L76,34.3z"/>
	<path class="st0" d="M82.9,36.4l0.6,0.7c-0.3,0.3-0.6,0.5-0.9,0.6c-0.4,0.2-0.9,0.3-1.4,0.3c-0.9,0-1.6-0.3-2.2-0.9   c-0.5-0.6-0.8-1.3-0.8-2.3c0-0.7,0.2-1.3,0.5-1.8c0.3-0.5,0.7-0.9,1.3-1.2c0.4-0.2,0.9-0.3,1.4-0.3c0.9,0,1.6,0.3,2.2,0.9l-0.7,0.7   c-0.5-0.4-1-0.6-1.6-0.6c-0.6,0-1.2,0.2-1.6,0.7c-0.3,0.4-0.5,0.9-0.5,1.6c0,0.8,0.2,1.4,0.7,1.8c0.4,0.3,0.8,0.5,1.4,0.5   C81.9,37.1,82.4,36.8,82.9,36.4z"/>
	<path class="st0" d="M85.9,28.9v3.6c0.5-0.7,1.1-1,1.8-1c0.4,0,0.7,0.1,1.1,0.3c0.3,0.2,0.6,0.5,0.7,0.8c0.1,0.3,0.1,0.6,0.1,1.1   v4.1h-1v-4.1c0-0.4-0.1-0.7-0.3-1c-0.2-0.2-0.5-0.3-0.8-0.3c-0.5,0-0.9,0.2-1.2,0.5c-0.2,0.2-0.3,0.4-0.3,0.6   c0,0.2-0.1,0.4-0.1,0.7v3.6h-1v-8.9L85.9,28.9L85.9,28.9z"/>
	<path class="st0" d="M97.6,35.1h-5.1c0,0.5,0.2,0.8,0.4,1.1c0.4,0.5,1,0.8,1.6,0.8c0.5,0,0.9-0.1,1.3-0.4c0.2-0.2,0.4-0.4,0.5-0.6   l0.9,0.3c-0.2,0.4-0.5,0.7-0.8,1c-0.6,0.5-1.2,0.7-1.9,0.7c-1,0-1.8-0.4-2.4-1.1c-0.5-0.6-0.7-1.3-0.7-2.1c0-1,0.3-1.7,0.9-2.3   s1.3-0.9,2.2-0.9c1.1,0,1.9,0.4,2.5,1.2c0.4,0.6,0.6,1.2,0.6,2C97.6,34.8,97.6,34.9,97.6,35.1z M96.5,34.3c0-0.4-0.2-0.8-0.4-1.1   c-0.2-0.3-0.4-0.4-0.7-0.6c-0.3-0.2-0.6-0.3-1-0.3c-0.5,0-0.9,0.1-1.3,0.4c-0.4,0.3-0.6,0.8-0.7,1.5L96.5,34.3L96.5,34.3z"/>
	<path class="st0" d="M99.2,31.7h1v1c0.2-0.4,0.3-0.6,0.6-0.8c0.3-0.3,0.7-0.4,1.2-0.4c0,0,0.1,0,0.2,0v1c-0.1,0-0.2,0-0.3,0   c-0.6,0-1,0.2-1.3,0.7c-0.2,0.2-0.3,0.5-0.3,0.7c0,0.2,0,0.4,0,0.7v3.1h-1V31.7z"/>
	<path class="st0" d="M107.7,36.4l0.6,0.7c-0.3,0.3-0.6,0.5-0.9,0.6c-0.4,0.2-0.9,0.3-1.4,0.3c-0.9,0-1.6-0.3-2.2-0.9   c-0.5-0.6-0.8-1.3-0.8-2.3c0-0.7,0.2-1.3,0.5-1.8c0.3-0.5,0.7-0.9,1.3-1.2c0.4-0.2,0.9-0.3,1.4-0.3c0.9,0,1.6,0.3,2.2,0.9l-0.7,0.7   c-0.5-0.4-1-0.6-1.6-0.6c-0.6,0-1.2,0.2-1.6,0.7c-0.3,0.4-0.5,0.9-0.5,1.6c0,0.8,0.2,1.4,0.7,1.8c0.4,0.3,0.8,0.5,1.4,0.5   C106.7,37.1,107.3,36.8,107.7,36.4z"/>
	<path class="st0" d="M110.8,28.9v3.6c0.5-0.7,1.1-1,1.8-1c0.4,0,0.7,0.1,1.1,0.3c0.3,0.2,0.6,0.5,0.7,0.8c0.1,0.3,0.1,0.6,0.1,1.1   v4.1h-1v-4.1c0-0.4-0.1-0.7-0.3-1c-0.2-0.2-0.5-0.3-0.8-0.3c-0.5,0-0.9,0.2-1.2,0.5c-0.2,0.2-0.3,0.4-0.3,0.6   c0,0.2-0.1,0.4-0.1,0.7v3.6h-1v-8.9L110.8,28.9L110.8,28.9z"/>
	<path class="st0" d="M122.4,35.1h-5.1c0,0.5,0.2,0.8,0.4,1.1c0.4,0.5,1,0.8,1.6,0.8c0.5,0,0.9-0.1,1.3-0.4c0.2-0.2,0.4-0.4,0.5-0.6   l0.9,0.3c-0.2,0.4-0.5,0.7-0.8,1c-0.6,0.5-1.2,0.7-1.9,0.7c-1,0-1.8-0.4-2.4-1.1c-0.5-0.6-0.7-1.3-0.7-2.1c0-1,0.3-1.7,0.9-2.3   c0.6-0.6,1.3-0.9,2.2-0.9c1.1,0,1.9,0.4,2.5,1.2c0.4,0.6,0.6,1.2,0.6,2C122.4,34.8,122.4,34.9,122.4,35.1z M121.3,34.3   c0-0.4-0.2-0.8-0.4-1.1c-0.2-0.3-0.4-0.4-0.7-0.6c-0.3-0.2-0.6-0.3-1-0.3c-0.5,0-0.9,0.1-1.3,0.4c-0.4,0.3-0.6,0.8-0.7,1.5   L121.3,34.3L121.3,34.3z"/>
	<path class="st0" d="M124,31.7h1v0.9c0.2-0.3,0.5-0.5,0.7-0.7c0.3-0.2,0.7-0.3,1.1-0.3c0.6,0,1.1,0.2,1.4,0.5   c0.2,0.2,0.4,0.5,0.5,0.8c0,0.2,0.1,0.5,0.1,0.8v4.1h-1v-3.9c0-0.5-0.1-0.9-0.2-1.1c-0.2-0.3-0.5-0.4-1-0.4c-0.5,0-0.8,0.2-1.2,0.5   c-0.3,0.3-0.4,0.7-0.4,1.1v3.8h-1L124,31.7L124,31.7z"/>
	<path class="st0" d="M136.2,32.6v5.3h-1v-5.3h-0.8v-0.9h0.8v-0.8c0-0.6,0.1-1.1,0.4-1.4c0.3-0.4,0.8-0.6,1.3-0.6c0.1,0,0.2,0,0.3,0   v0.9c-0.3,0-0.5,0.1-0.7,0.2c-0.2,0.1-0.3,0.4-0.3,0.8v0.8h1v0.9L136.2,32.6L136.2,32.6z"/>
	<path class="st0" d="M142.3,31.7h1v3.9c0,0.6-0.1,1-0.3,1.3c-0.2,0.3-0.5,0.6-0.9,0.8c-0.4,0.2-0.8,0.3-1.2,0.3   c-0.7,0-1.3-0.2-1.8-0.7c-0.4-0.4-0.6-1-0.6-1.7v-3.9h1v3.9c0,0.4,0.1,0.8,0.4,1.1c0.3,0.3,0.6,0.4,1,0.4c0.5,0,0.8-0.2,1.1-0.5   c0.2-0.2,0.3-0.5,0.3-1L142.3,31.7L142.3,31.7z M139.6,29.3c0.2,0,0.3,0.1,0.5,0.2c0.1,0.1,0.2,0.3,0.2,0.4c0,0.2-0.1,0.3-0.2,0.5   c-0.1,0.1-0.3,0.2-0.4,0.2c-0.2,0-0.4-0.1-0.5-0.2c-0.1-0.1-0.2-0.3-0.2-0.4c0-0.2,0.1-0.3,0.2-0.5   C139.3,29.3,139.4,29.3,139.6,29.3z M142.3,29.3c0.2,0,0.3,0.1,0.5,0.2c0.1,0.1,0.2,0.3,0.2,0.4c0,0.2-0.1,0.3-0.2,0.5   c-0.1,0.1-0.3,0.2-0.4,0.2c-0.2,0-0.4-0.1-0.5-0.2c-0.1-0.1-0.2-0.3-0.2-0.4c0-0.2,0.1-0.3,0.2-0.5C142,29.3,142.1,29.3,142.3,29.3   z"/>
	<path class="st0" d="M145.3,31.7h1v1c0.2-0.4,0.3-0.6,0.6-0.8c0.3-0.3,0.7-0.4,1.2-0.4c0,0,0.1,0,0.2,0v1c-0.1,0-0.2,0-0.3,0   c-0.6,0-1,0.2-1.3,0.7c-0.2,0.2-0.3,0.5-0.3,0.7c0,0.2,0,0.4,0,0.7v3.1h-1L145.3,31.7L145.3,31.7z"/>
	<path class="st0" d="M158.4,32.6V29h1v8.9h-1v-1.1c-0.3,0.3-0.5,0.6-0.8,0.8c-0.4,0.3-0.9,0.4-1.4,0.4c-0.9,0-1.6-0.3-2.1-0.9   c-0.5-0.6-0.8-1.3-0.8-2.3c0-0.6,0.1-1.2,0.4-1.7c0.2-0.5,0.6-0.8,1-1.1c0.5-0.3,0.9-0.4,1.5-0.4c0.4,0,0.8,0.1,1.2,0.3   C157.8,32,158.1,32.2,158.4,32.6z M156.4,32.4c-0.7,0-1.2,0.3-1.6,0.8c-0.3,0.4-0.4,0.9-0.4,1.5c0,0.7,0.2,1.3,0.6,1.7   c0.4,0.4,0.8,0.6,1.4,0.6c0.6,0,1.1-0.2,1.5-0.7c0.2-0.2,0.3-0.5,0.4-0.8c0.1-0.3,0.1-0.5,0.1-0.8c0-0.7-0.2-1.3-0.6-1.7   S157,32.4,156.4,32.4z"/>
	<path class="st0" d="M162.1,29.3c0.2,0,0.3,0.1,0.5,0.2c0.1,0.1,0.2,0.3,0.2,0.5c0,0.2-0.1,0.3-0.2,0.5c-0.1,0.1-0.3,0.2-0.4,0.2   c-0.2,0-0.4-0.1-0.5-0.2c-0.1-0.1-0.2-0.3-0.2-0.4c0-0.2,0.1-0.4,0.2-0.5C161.8,29.4,162,29.3,162.1,29.3z M162.6,31.7v6.2h-1v-6.2   H162.6z"/>
	<path class="st0" d="M170.5,35.1h-5.1c0,0.5,0.2,0.8,0.4,1.1c0.4,0.5,1,0.8,1.6,0.8c0.5,0,0.9-0.1,1.3-0.4c0.2-0.2,0.4-0.4,0.5-0.6   l0.9,0.3c-0.2,0.4-0.5,0.7-0.8,1c-0.6,0.5-1.2,0.7-1.9,0.7c-1,0-1.8-0.4-2.4-1.1c-0.5-0.6-0.7-1.3-0.7-2.1c0-1,0.3-1.7,0.9-2.3   c0.6-0.6,1.3-0.9,2.2-0.9c1.1,0,1.9,0.4,2.5,1.2c0.4,0.6,0.6,1.2,0.6,2C170.5,34.8,170.5,34.9,170.5,35.1z M169.4,34.3   c0-0.4-0.2-0.8-0.4-1.1c-0.2-0.3-0.4-0.4-0.7-0.6c-0.3-0.2-0.6-0.3-1-0.3c-0.5,0-0.9,0.1-1.3,0.4c-0.4,0.3-0.6,0.8-0.7,1.5   L169.4,34.3L169.4,34.3z"/>
	<path class="st0" d="M67.7,47.8H72c0,0.2,0,0.3,0,0.5c0,0.8-0.1,1.5-0.4,2.1c-0.4,0.7-0.9,1.3-1.6,1.7c-0.7,0.4-1.4,0.6-2.3,0.6   c-0.8,0-1.6-0.2-2.3-0.6c-0.6-0.4-1.1-0.9-1.5-1.6c-0.4-0.7-0.6-1.5-0.6-2.4c0-0.7,0.1-1.4,0.4-2.1c0.3-0.8,0.8-1.4,1.5-1.8   c0.7-0.5,1.5-0.7,2.5-0.7c0.8,0,1.6,0.2,2.3,0.7c0.4,0.2,0.7,0.5,1,0.9l-0.8,0.7c-0.3-0.3-0.5-0.6-0.7-0.7   c-0.5-0.4-1.1-0.5-1.8-0.5c-0.7,0-1.3,0.2-1.9,0.6c-0.5,0.4-0.9,0.8-1.1,1.4c-0.2,0.5-0.3,1-0.3,1.6c0,0.7,0.2,1.3,0.5,1.9   c0.3,0.5,0.6,0.9,1.1,1.2c0.5,0.3,1.1,0.5,1.6,0.5c0.7,0,1.4-0.2,2-0.7c0.5-0.4,0.9-1,1.1-1.6c0-0.2,0.1-0.4,0.1-0.6h-3.1   L67.7,47.8L67.7,47.8z"/>
	<path class="st0" d="M79.4,49.9h-5.1c0,0.5,0.2,0.8,0.4,1.1c0.4,0.5,1,0.8,1.6,0.8c0.5,0,0.9-0.1,1.3-0.4c0.2-0.2,0.4-0.4,0.5-0.6   l0.9,0.3c-0.2,0.4-0.5,0.7-0.8,1c-0.6,0.5-1.2,0.7-1.9,0.7c-1,0-1.8-0.4-2.4-1.1c-0.5-0.6-0.7-1.3-0.7-2.1c0-1,0.3-1.7,0.9-2.3   s1.3-0.9,2.2-0.9c1.1,0,1.9,0.4,2.5,1.2c0.4,0.6,0.6,1.2,0.6,2C79.4,49.5,79.4,49.7,79.4,49.9z M78.3,49.1c0-0.4-0.2-0.8-0.4-1.1   c-0.2-0.3-0.4-0.4-0.7-0.6c-0.3-0.2-0.6-0.3-1-0.3c-0.5,0-0.9,0.1-1.3,0.4c-0.4,0.3-0.6,0.8-0.7,1.5L78.3,49.1L78.3,49.1z"/>
	<path class="st0" d="M84.9,48.1h-1c0-0.2,0-0.4-0.1-0.5c-0.2-0.3-0.6-0.5-1.1-0.5c-0.3,0-0.6,0.1-0.8,0.3c-0.2,0.2-0.3,0.4-0.3,0.6   c0,0.2,0.1,0.4,0.2,0.5c0.1,0.1,0.3,0.3,0.5,0.3c0.2,0.1,0.4,0.1,0.6,0.2c0.7,0.2,1.2,0.4,1.5,0.7c0.3,0.3,0.5,0.7,0.5,1.2   c0,0.6-0.3,1.1-0.7,1.4c-0.4,0.3-0.8,0.4-1.4,0.4c-0.9,0-1.6-0.3-2-0.8c-0.2-0.3-0.3-0.6-0.3-1h1c0,0.3,0.1,0.5,0.3,0.7   c0.2,0.3,0.6,0.4,1.1,0.4c0.3,0,0.6-0.1,0.8-0.2c0.2-0.2,0.3-0.4,0.3-0.7c0-0.3-0.1-0.5-0.4-0.7c-0.2-0.1-0.5-0.3-1-0.4   c-0.7-0.2-1.1-0.4-1.4-0.7c-0.3-0.3-0.5-0.7-0.5-1.2c0-0.6,0.3-1.1,0.7-1.4c0.4-0.3,0.8-0.4,1.4-0.4c0.8,0,1.4,0.2,1.8,0.7   C84.7,47.3,84.8,47.7,84.9,48.1z"/>
	<path class="st0" d="M92.3,49.9h-5.1c0,0.5,0.2,0.8,0.4,1.1c0.4,0.5,1,0.8,1.6,0.8c0.5,0,0.9-0.1,1.3-0.4c0.2-0.2,0.4-0.4,0.5-0.6   l0.9,0.3c-0.2,0.4-0.5,0.7-0.8,1c-0.6,0.5-1.2,0.7-1.9,0.7c-1,0-1.8-0.4-2.4-1.1c-0.5-0.6-0.7-1.3-0.7-2.1c0-1,0.3-1.7,0.9-2.3   c0.6-0.6,1.3-0.9,2.2-0.9c1.1,0,1.9,0.4,2.5,1.2c0.4,0.6,0.6,1.2,0.6,2C92.4,49.5,92.3,49.7,92.3,49.9z M91.3,49.1   c0-0.4-0.2-0.8-0.4-1.1c-0.2-0.3-0.4-0.4-0.7-0.6c-0.3-0.2-0.6-0.3-1-0.3c-0.5,0-0.9,0.1-1.3,0.4c-0.4,0.3-0.6,0.8-0.7,1.5   L91.3,49.1L91.3,49.1z"/>
	<path class="st0" d="M95,52.6h-1v-8.9h1V52.6z"/>
	<path class="st0" d="M98.2,52.6h-1v-8.9h1V52.6z"/>
	<path class="st0" d="M104.2,48.1h-1c0-0.2,0-0.4-0.1-0.5c-0.2-0.3-0.6-0.5-1.1-0.5c-0.3,0-0.6,0.1-0.8,0.3   c-0.2,0.2-0.3,0.4-0.3,0.6c0,0.2,0.1,0.4,0.2,0.5c0.1,0.1,0.3,0.3,0.5,0.3c0.2,0.1,0.4,0.1,0.6,0.2c0.7,0.2,1.2,0.4,1.5,0.7   c0.3,0.3,0.5,0.7,0.5,1.2c0,0.6-0.3,1.1-0.7,1.4c-0.4,0.3-0.8,0.4-1.4,0.4c-0.9,0-1.6-0.3-2-0.8c-0.2-0.3-0.3-0.6-0.3-1h1   c0,0.3,0.1,0.5,0.3,0.7c0.2,0.3,0.6,0.4,1.1,0.4c0.3,0,0.6-0.1,0.8-0.2c0.2-0.2,0.3-0.4,0.3-0.7c0-0.3-0.1-0.5-0.4-0.7   c-0.2-0.1-0.5-0.3-1-0.4c-0.7-0.2-1.1-0.4-1.4-0.7c-0.3-0.3-0.5-0.7-0.5-1.2c0-0.6,0.3-1.1,0.7-1.4c0.4-0.3,0.8-0.4,1.4-0.4   c0.8,0,1.4,0.2,1.8,0.7C104.1,47.3,104.2,47.7,104.2,48.1z"/>
	<path class="st0" d="M110.1,51.2l0.6,0.7c-0.3,0.3-0.6,0.5-0.9,0.6c-0.4,0.2-0.9,0.3-1.4,0.3c-0.9,0-1.6-0.3-2.2-0.9   c-0.5-0.6-0.8-1.3-0.8-2.3c0-0.7,0.2-1.3,0.5-1.8c0.3-0.5,0.7-0.9,1.3-1.2c0.4-0.2,0.9-0.3,1.4-0.3c0.9,0,1.6,0.3,2.2,0.9l-0.7,0.7   c-0.5-0.4-1-0.6-1.6-0.6c-0.6,0-1.2,0.2-1.6,0.7c-0.3,0.4-0.5,0.9-0.5,1.6c0,0.8,0.2,1.4,0.7,1.8c0.4,0.3,0.8,0.5,1.4,0.5   C109.2,51.8,109.7,51.6,110.1,51.2z"/>
	<path class="st0" d="M113.2,43.7v3.6c0.5-0.7,1.1-1,1.8-1c0.4,0,0.7,0.1,1.1,0.3c0.3,0.2,0.6,0.5,0.7,0.8c0.1,0.3,0.1,0.6,0.1,1.1   v4.1h-1v-4.1c0-0.4-0.1-0.7-0.3-1c-0.2-0.2-0.5-0.3-0.8-0.3c-0.5,0-0.9,0.2-1.2,0.5c-0.2,0.2-0.3,0.4-0.3,0.6   c0,0.2-0.1,0.4-0.1,0.7v3.6h-1v-8.9L113.2,43.7L113.2,43.7z"/>
	<path class="st0" d="M123.8,47.5v-1h1v6.2h-1v-1.2c-0.6,0.9-1.3,1.3-2.2,1.3c-0.9,0-1.6-0.3-2.2-1c-0.5-0.6-0.8-1.3-0.8-2.2   c0-0.6,0.1-1.2,0.4-1.8c0.3-0.5,0.6-0.8,1.1-1.1c0.4-0.2,0.9-0.4,1.4-0.4c0.5,0,1,0.1,1.4,0.4C123.3,46.9,123.5,47.1,123.8,47.5z    M121.7,47.2c-0.6,0-1.1,0.3-1.5,0.7c-0.3,0.5-0.5,1-0.5,1.6c0,0.7,0.2,1.3,0.7,1.7c0.4,0.4,0.8,0.5,1.3,0.5c0.6,0,1.2-0.3,1.6-0.8   c0.3-0.5,0.5-1,0.5-1.6c0-0.7-0.2-1.2-0.6-1.6C122.8,47.4,122.3,47.2,121.7,47.2z"/>
	<path class="st0" d="M128.1,47.4v5.3h-1v-5.3h-0.8v-0.9h0.8v-0.8c0-0.6,0.1-1.1,0.4-1.4c0.3-0.4,0.8-0.6,1.3-0.6c0.1,0,0.2,0,0.3,0   v0.9c-0.3,0-0.5,0.1-0.7,0.2c-0.2,0.1-0.3,0.4-0.3,0.8v0.8h1v0.9L128.1,47.4L128.1,47.4z"/>
	<path class="st0" d="M131.6,47.4v4c0,0.1,0,0.2,0.1,0.3c0.1,0.1,0.2,0.1,0.4,0.1h0.5v0.9h-0.9c-0.3,0-0.6-0.1-0.8-0.2   c-0.2-0.1-0.2-0.4-0.2-0.7v-4.3h-0.8v-0.9h0.8v-1.9h1v1.9h0.9v0.9H131.6z"/>
</g>
<path class="st0" d="M41.5,58.6L16.2,37.9H0V0h55.4v37.9H41.5V58.6z M4.6,33.4h13.2L37,49V33.4h13.9V4.6H4.6V33.4z"/>
</svg>