<svg version="1.1" id="Ebene_1" xmlns:x="&amp;ns_extend;" xmlns:i="&amp;ns_ai;" xmlns:graph="&amp;ns_graphs;" xmlns="http://www.w3.org/2000/svg" xmlns:xlink="http://www.w3.org/1999/xlink" x="0px" y="0px" width="282px" height="84px" viewBox="0 0 282 84" style="max-height: 130px;" xml:space="preserve" preserveAspectRatio="xMinYMid meet"><style type="text/css">.st0{fill:#FFCC00;}
	.st1{fill:#FF0000;}</style><metadata> <sfw xmlns="&amp;ns_sfw;"> <slices></slices> <slicesourcebounds bottomleftorigin="true" height="16383" width="16438.1" x="-7945.8" y="-8590.2"></slicesourcebounds> </sfw> </metadata> <g> <g> <path d="M224.9,60v1.4h4.1v11.2h1.7V61.5h4V60H224.9z M216.3,68.1l-4.3-7.8c-0.1-0.1-0.2-0.2-0.2-0.2c-0.1,0-0.2,0-0.3,0h-1.2
 v12.6h1.5v-9.3c0-0.1,0-0.3,0-0.4c0-0.1,0-0.3,0-0.4l4.4,7.9c0.1,0.3,0.3,0.4,0.6,0.4h0.2c0.3,0,0.5-0.1,0.6-0.4l4.3-7.9
 c0,0.1,0,0.3,0,0.4c0,0.1,0,0.3,0,0.4v9.3h1.5V60h-1.2c-0.2,0-0.3,0-0.3,0c-0.1,0-0.2,0.1-0.2,0.2l-4.2,7.8
 c-0.1,0.2-0.2,0.3-0.2,0.5c-0.1,0.1-0.1,0.3-0.2,0.5c-0.1-0.2-0.1-0.3-0.2-0.5C216.5,68.4,216.4,68.2,216.3,68.1 M202.4,62.9
 c0.1-0.2,0.1-0.3,0.2-0.5c0.1-0.2,0.1-0.4,0.2-0.7c0.1,0.5,0.2,0.9,0.4,1.2l2,5.1h-4.7L202.4,62.9z M203.6,60h-1.7l-5,12.6h1.3
 c0.1,0,0.3,0,0.4-0.1c0.1-0.1,0.2-0.2,0.2-0.3l1.2-3h5.6l1.2,3c0,0.1,0.1,0.2,0.2,0.3c0.1,0.1,0.2,0.1,0.4,0.1h1.3L203.6,60z
 M186,60h-0.9v12.6h1.5v-9c0-0.1,0-0.2,0-0.4c0-0.1,0-0.3,0-0.4l7.2,9.5c0.1,0.1,0.2,0.2,0.3,0.2c0.1,0,0.2,0.1,0.3,0.1h0.9V60
 h-1.5V69c0,0.1,0,0.3,0,0.4c0,0.1,0,0.3,0,0.4l-7.2-9.5c-0.1-0.1-0.2-0.2-0.2-0.2C186.3,60.1,186.2,60,186,60 M175,60v12.6h7.7
 v-1.4h-6V67h4.9v-1.3h-4.9v-4.2h6V60H175z M165.6,61.4h1.8c1,0,1.7,0.2,2.2,0.6c0.5,0.4,0.7,0.9,0.7,1.7c0,0.4-0.1,0.7-0.2,1
 c-0.1,0.3-0.3,0.6-0.6,0.8c-0.3,0.2-0.6,0.4-0.9,0.5c-0.4,0.1-0.8,0.2-1.3,0.2h-1.8V61.4z M166.9,67.4c0.2,0,0.4,0,0.5,0.1
 c0.1,0.1,0.2,0.2,0.3,0.3l3.2,4.5c0.1,0.2,0.4,0.4,0.7,0.4h1.5l-3.6-5c-0.2-0.2-0.3-0.4-0.6-0.5c0.5-0.1,0.9-0.3,1.3-0.5
 c0.4-0.2,0.7-0.5,1-0.8c0.3-0.3,0.5-0.7,0.6-1c0.1-0.4,0.2-0.8,0.2-1.3c0-0.5-0.1-1-0.3-1.4c-0.2-0.4-0.5-0.8-0.8-1.1
 c-0.4-0.3-0.8-0.5-1.4-0.7c-0.6-0.2-1.3-0.2-2-0.2H164v12.6h1.7v-5.3H166.9z M160.7,60H159v5.6h-6.7V60h-1.7v12.6h1.7v-5.7h6.7
 v5.7h1.7V60z M140.5,60v12.6h7.7v-1.4h-6V67h4.9v-1.3h-4.9v-4.2h6V60H140.5z M132.7,68.4c-0.2,0.6-0.5,1.1-0.9,1.5
 c-0.4,0.4-0.8,0.7-1.4,1c-0.5,0.2-1.2,0.3-1.8,0.3h-3v-9.9h3c0.7,0,1.3,0.1,1.8,0.3c0.5,0.2,1,0.5,1.4,1c0.4,0.4,0.7,0.9,0.9,1.5
 c0.2,0.6,0.3,1.3,0.3,2.1S132.9,67.8,132.7,68.4 M134.3,63.8c-0.3-0.8-0.7-1.4-1.3-2c-0.5-0.6-1.2-1-1.9-1.3
 c-0.8-0.3-1.6-0.5-2.5-0.5H124v12.6h4.7c0.9,0,1.8-0.2,2.5-0.5c0.8-0.3,1.4-0.7,1.9-1.3s1-1.2,1.3-2c0.3-0.8,0.4-1.6,0.4-2.6
 S134.6,64.6,134.3,63.8 M111.6,60h-0.9v12.6h1.5v-9c0-0.1,0-0.2,0-0.4c0-0.1,0-0.3,0-0.4l7.2,9.5c0.1,0.1,0.2,0.2,0.3,0.2
 c0.1,0,0.2,0.1,0.3,0.1h0.9V60h-1.5V69c0,0.1,0,0.3,0,0.4c0,0.1,0,0.3,0,0.4l-7.2-9.5c-0.1-0.1-0.2-0.2-0.2-0.2
 C111.9,60.1,111.8,60,111.6,60 M101.5,71c-0.4-0.2-0.8-0.4-1-0.7c-0.3-0.3-0.5-0.7-0.6-1.1c-0.1-0.4-0.2-0.9-0.2-1.5V60h-1.7v7.7
 c0,0.7,0.1,1.4,0.3,2c0.2,0.6,0.6,1.2,1,1.6c0.4,0.5,1,0.8,1.6,1.1c0.6,0.3,1.3,0.4,2.1,0.4s1.5-0.1,2.1-0.4
 c0.6-0.3,1.1-0.6,1.6-1.1c0.4-0.5,0.8-1,1-1.6c0.2-0.6,0.3-1.3,0.3-2V60h-1.7v7.7c0,0.5-0.1,1-0.2,1.5c-0.1,0.4-0.4,0.8-0.6,1.1
 c-0.3,0.3-0.6,0.6-1,0.7s-0.9,0.3-1.4,0.3S101.9,71.2,101.5,71"></path> <path d="M247.2,36.8v1.4h4.1v11.2h1.7V38.2h4v-1.4H247.2z M236,36.8h-0.9v12.6h1.5v-9c0-0.1,0-0.2,0-0.4c0-0.1,0-0.3,0-0.4
 l7.2,9.5c0.1,0.1,0.2,0.2,0.3,0.2c0.1,0,0.2,0.1,0.3,0.1h0.9V36.8h-1.5v8.9c0,0.1,0,0.3,0,0.4c0,0.1,0,0.3,0,0.4l-7.2-9.5
 c-0.1-0.1-0.2-0.2-0.2-0.2C236.3,36.8,236.2,36.8,236,36.8 M224.8,36.8v12.6h7.7V48h-6v-4.3h4.9v-1.3h-4.9v-4.2h6v-1.4H224.8z
 M214.8,44.9l-4.3-7.8c-0.1-0.1-0.2-0.2-0.2-0.2c-0.1,0-0.2,0-0.3,0h-1.2v12.6h1.5v-9.3c0-0.1,0-0.3,0-0.4c0-0.1,0-0.3,0-0.4
 l4.4,7.9c0.1,0.3,0.3,0.4,0.6,0.4h0.2c0.3,0,0.5-0.1,0.6-0.4l4.3-7.9c0,0.1,0,0.3,0,0.4c0,0.1,0,0.3,0,0.4v9.3h1.5V36.8h-1.2
 c-0.2,0-0.3,0-0.3,0c-0.1,0-0.2,0.1-0.2,0.2l-4.2,7.8c-0.1,0.2-0.2,0.3-0.2,0.5c-0.1,0.1-0.1,0.3-0.2,0.5
 c-0.1-0.2-0.1-0.3-0.2-0.5C214.9,45.2,214.9,45,214.8,44.9 M198.3,36.8v12.6h7.7V48h-6v-4.3h4.9v-1.3H200v-4.2h6v-1.4H198.3z
 M189.1,47.8c-0.6-0.2-1-0.6-1.4-1s-0.7-1-0.9-1.6c-0.2-0.6-0.3-1.3-0.3-2.1c0-0.8,0.1-1.5,0.3-2.1c0.2-0.6,0.5-1.1,0.9-1.6
 c0.4-0.4,0.9-0.8,1.5-1c0.6-0.2,1.2-0.3,1.9-0.3c0.5,0,0.9,0,1.3,0.1c0.4,0.1,0.7,0.2,0.9,0.3c0.3,0.1,0.5,0.2,0.7,0.3
 c0.2,0.1,0.3,0.2,0.5,0.3c0.1,0.1,0.2,0.1,0.3,0.1c0.2,0,0.3-0.1,0.4-0.2l0.5-0.8c-0.3-0.2-0.6-0.5-0.9-0.7
 c-0.3-0.2-0.6-0.4-1-0.5c-0.4-0.1-0.8-0.2-1.2-0.3c-0.4-0.1-0.9-0.1-1.4-0.1c-1,0-1.9,0.2-2.6,0.5c-0.8,0.3-1.5,0.7-2,1.3
 c-0.6,0.6-1,1.2-1.3,2c-0.3,0.8-0.4,1.7-0.4,2.6c0,1,0.2,1.8,0.5,2.6c0.3,0.8,0.7,1.5,1.3,2c0.5,0.6,1.2,1,2,1.3
 c0.8,0.3,1.6,0.5,2.5,0.5c0.5,0,1,0,1.4-0.1c0.4-0.1,0.9-0.1,1.2-0.3c0.4-0.1,0.7-0.3,1.1-0.4c0.3-0.2,0.7-0.4,1-0.6v-4.8h-3.8v1
 c0,0.1,0,0.2,0.1,0.2c0.1,0.1,0.2,0.1,0.3,0.1h1.9v2.8c-0.2,0.1-0.4,0.2-0.7,0.3c-0.2,0.1-0.5,0.2-0.7,0.2
 c-0.2,0.1-0.5,0.1-0.8,0.1s-0.6,0-0.9,0C190.3,48.2,189.6,48.1,189.1,47.8 M177.7,39.6c0.1-0.2,0.1-0.3,0.2-0.5
 c0.1-0.2,0.1-0.4,0.2-0.7c0.1,0.5,0.2,0.9,0.4,1.2l2,5.1h-4.7L177.7,39.6z M179,36.8h-1.7l-5,12.6h1.3c0.1,0,0.3,0,0.4-0.1
 c0.1-0.1,0.2-0.2,0.2-0.3l1.2-3h5.6l1.2,3c0,0.1,0.1,0.2,0.2,0.3c0.1,0.1,0.2,0.1,0.4,0.1h1.3L179,36.8z M164.4,47.8
 c-0.6-0.2-1-0.6-1.4-1c-0.4-0.4-0.7-1-0.9-1.6c-0.2-0.6-0.3-1.3-0.3-2.1c0-0.8,0.1-1.5,0.3-2.1c0.2-0.6,0.5-1.1,0.9-1.6
 c0.4-0.4,0.9-0.8,1.5-1c0.6-0.2,1.2-0.3,1.9-0.3c0.5,0,0.9,0,1.3,0.1c0.4,0.1,0.7,0.2,0.9,0.3c0.3,0.1,0.5,0.2,0.7,0.3
 c0.2,0.1,0.3,0.2,0.5,0.3c0.1,0.1,0.2,0.1,0.3,0.1c0.2,0,0.3-0.1,0.4-0.2l0.5-0.8c-0.3-0.2-0.6-0.5-0.9-0.7
 c-0.3-0.2-0.6-0.4-1-0.5c-0.4-0.1-0.8-0.2-1.2-0.3c-0.4-0.1-0.9-0.1-1.4-0.1c-1,0-1.9,0.2-2.6,0.5c-0.8,0.3-1.5,0.7-2,1.3
 c-0.6,0.6-1,1.2-1.3,2c-0.3,0.8-0.4,1.7-0.4,2.6c0,1,0.2,1.8,0.5,2.6c0.3,0.8,0.7,1.5,1.3,2c0.5,0.6,1.2,1,2,1.3
 c0.8,0.3,1.6,0.5,2.5,0.5c0.5,0,1,0,1.4-0.1c0.4-0.1,0.9-0.1,1.2-0.3c0.4-0.1,0.7-0.3,1.1-0.4c0.3-0.2,0.7-0.4,1-0.6v-4.8h-3.8v1
 c0,0.1,0,0.2,0.1,0.2c0.1,0.1,0.2,0.1,0.3,0.1h1.9v2.8c-0.2,0.1-0.4,0.2-0.7,0.3c-0.2,0.1-0.5,0.2-0.7,0.2s-0.5,0.1-0.8,0.1
 c-0.3,0-0.6,0-0.9,0C165.6,48.2,165,48.1,164.4,47.8 M148.2,36.8h-0.9v12.6h1.5v-9c0-0.1,0-0.2,0-0.4c0-0.1,0-0.3,0-0.4l7.2,9.5
 c0.1,0.1,0.2,0.2,0.3,0.2c0.1,0,0.2,0.1,0.3,0.1h0.9V36.8H156v8.9c0,0.1,0,0.3,0,0.4c0,0.1,0,0.3,0,0.4l-7.2-9.5
 c-0.1-0.1-0.2-0.2-0.2-0.2C148.5,36.8,148.4,36.8,148.2,36.8 M137.1,36.8v12.6h7.7V48h-6v-4.3h4.9v-1.3h-4.9v-4.2h6v-1.4H137.1z
 M123.6,38.2h1.9c1,0,1.8,0.2,2.3,0.6s0.8,0.9,0.8,1.7c0,0.4-0.1,0.7-0.2,1c-0.1,0.3-0.3,0.6-0.6,0.8c-0.3,0.2-0.6,0.4-1,0.5
 c-0.4,0.1-0.8,0.2-1.3,0.2h-1.8V38.2z M125,44.2c0.2,0,0.4,0,0.5,0.1c0.1,0.1,0.2,0.2,0.3,0.3l3.3,4.5c0.1,0.2,0.4,0.4,0.7,0.4
 h1.5l-3.8-5c-0.2-0.2-0.4-0.4-0.6-0.5c0.5-0.1,0.9-0.3,1.3-0.5c0.4-0.2,0.7-0.5,1-0.8c0.3-0.3,0.5-0.7,0.6-1
 c0.1-0.4,0.2-0.8,0.2-1.3c0-0.5-0.1-1-0.3-1.4c-0.2-0.4-0.5-0.8-0.9-1.1c-0.4-0.3-0.9-0.5-1.5-0.7c-0.6-0.2-1.3-0.2-2.1-0.2h-3.6
 v12.6h1.7v-5.3H125z M116.3,34.4c-0.1-0.1-0.1-0.2-0.2-0.3c-0.1-0.1-0.2-0.2-0.3-0.2c-0.1-0.1-0.2-0.1-0.4-0.1
 c-0.1,0-0.3,0-0.4,0.1c-0.1,0.1-0.2,0.1-0.3,0.2c-0.1,0.1-0.2,0.2-0.2,0.3c-0.1,0.1-0.1,0.2-0.1,0.4c0,0.1,0,0.3,0.1,0.4
 c0.1,0.1,0.1,0.2,0.2,0.3c0.1,0.1,0.2,0.2,0.3,0.2c0.1,0.1,0.2,0.1,0.4,0.1c0.1,0,0.3,0,0.4-0.1c0.1-0.1,0.2-0.1,0.3-0.2
 c0.1-0.1,0.2-0.2,0.2-0.3c0.1-0.1,0.1-0.2,0.1-0.4C116.3,34.6,116.3,34.5,116.3,34.4 M112.4,34.4c-0.1-0.1-0.1-0.2-0.2-0.3
 c-0.1-0.1-0.2-0.2-0.3-0.2c-0.1-0.1-0.3-0.1-0.4-0.1c-0.1,0-0.2,0-0.4,0.1c-0.1,0.1-0.2,0.1-0.3,0.2c-0.1,0.1-0.2,0.2-0.2,0.3
 c-0.1,0.1-0.1,0.2-0.1,0.4c0,0.1,0,0.3,0.1,0.4c0.1,0.1,0.1,0.2,0.2,0.3c0.1,0.1,0.2,0.2,0.3,0.2c0.1,0.1,0.2,0.1,0.4,0.1
 c0.1,0,0.3,0,0.4-0.1c0.1-0.1,0.2-0.1,0.3-0.2c0.1-0.1,0.2-0.2,0.2-0.3c0.1-0.1,0.1-0.2,0.1-0.4C112.5,34.6,112.5,34.5,112.4,34.4
 M112,47.8c-0.4-0.2-0.8-0.4-1.1-0.7c-0.3-0.3-0.5-0.7-0.7-1.1c-0.2-0.4-0.2-0.9-0.2-1.5v-7.7h-1.7v7.7c0,0.7,0.1,1.4,0.4,2
 c0.2,0.6,0.6,1.2,1,1.6c0.4,0.5,1,0.8,1.6,1.1c0.6,0.3,1.3,0.4,2.1,0.4s1.5-0.1,2.1-0.4c0.6-0.3,1.2-0.6,1.6-1.1
 c0.4-0.5,0.8-1,1-1.6c0.2-0.6,0.4-1.3,0.4-2v-7.7h-1.7v7.7c0,0.5-0.1,1-0.2,1.5c-0.2,0.4-0.4,0.8-0.7,1.1
 c-0.3,0.3-0.6,0.6-1.1,0.7c-0.4,0.2-0.9,0.3-1.4,0.3C112.9,48.1,112.4,48,112,47.8 M98.1,36.8v12.6h1.8V44h5.3v-1.4h-5.3v-4.4h6.2
 v-1.4H98.1z"></path> <path d="M272.1,25.2c-0.7-0.3-1.2-0.6-1.7-1.1c-0.5-0.5-0.8-1.1-1.1-1.8c-0.3-0.7-0.4-1.5-0.4-2.4c0-0.9,0.1-1.6,0.4-2.3
 c0.3-0.7,0.6-1.3,1.1-1.8c0.5-0.5,1-0.9,1.7-1.1c0.7-0.3,1.4-0.4,2.2-0.4c0.6,0,1.2,0.1,1.6,0.2c0.4,0.1,0.8,0.2,1.1,0.4
 c0.3,0.1,0.5,0.3,0.7,0.4c0.2,0.1,0.3,0.2,0.4,0.2c0,0,0.1,0,0.2,0c0.1,0,0.2,0,0.2-0.1l0.2-0.4c-0.3-0.2-0.6-0.5-0.9-0.6
 c-0.3-0.2-0.6-0.3-1-0.5c-0.4-0.1-0.7-0.2-1.1-0.3c-0.4-0.1-0.9-0.1-1.3-0.1c-1,0-1.9,0.2-2.6,0.5c-0.8,0.3-1.5,0.7-2,1.3
 c-0.6,0.6-1,1.2-1.3,2c-0.3,0.8-0.4,1.7-0.4,2.6c0,1,0.1,1.8,0.4,2.6c0.3,0.8,0.7,1.5,1.3,2c0.5,0.6,1.2,1,1.9,1.3
 c0.8,0.3,1.6,0.5,2.5,0.5c0.5,0,1,0,1.5-0.1c0.4-0.1,0.9-0.1,1.3-0.3c0.4-0.1,0.8-0.3,1.1-0.4c0.3-0.2,0.7-0.4,1-0.6v-4.4h-3.5V21
 c0,0.1,0,0.1,0.1,0.1c0,0,0.1,0.1,0.2,0.1h2.4v3.4c-0.3,0.2-0.6,0.3-0.8,0.4c-0.3,0.1-0.6,0.2-0.9,0.3c-0.3,0.1-0.6,0.2-1,0.2
 c-0.4,0-0.8,0.1-1.2,0.1C273.5,25.6,272.7,25.5,272.1,25.2 M255.7,13.7h-0.4v12.5h0.8V15.7c0-0.2,0-0.3,0-0.5l8.3,10.8
 c0.1,0.1,0.2,0.2,0.3,0.2h0.4V13.7h-0.8v10.4c0,0.2,0,0.3,0,0.5L256,13.9c-0.1-0.1-0.1-0.1-0.2-0.1
 C255.8,13.7,255.7,13.7,255.7,13.7 M245.1,25.2c-0.5-0.2-0.9-0.5-1.2-0.9c-0.3-0.4-0.6-0.8-0.8-1.3c-0.2-0.5-0.3-1-0.3-1.6v-7.7
 h-0.9v7.7c0,0.7,0.1,1.3,0.3,1.9c0.2,0.6,0.5,1.1,1,1.6c0.4,0.4,0.9,0.8,1.5,1c0.6,0.3,1.3,0.4,2,0.4c0.7,0,1.4-0.1,2-0.4
 c0.6-0.3,1.1-0.6,1.5-1c0.4-0.4,0.7-1,1-1.6s0.3-1.2,0.3-1.9v-7.7h-0.9v7.7c0,0.6-0.1,1.1-0.3,1.6c-0.2,0.5-0.4,0.9-0.8,1.3
 c-0.3,0.4-0.7,0.7-1.2,0.9c-0.5,0.2-1,0.3-1.6,0.3C246.1,25.5,245.6,25.4,245.1,25.2 M230,13.7v0.8h4.5v11.7h0.9V14.5h4.5v-0.8
 H230z M221.3,13.7v12.5h0.9v-5.7h5.8v-0.7h-5.8v-5.2h6.7v-0.7H221.3z M217.2,13.7h-0.9v12.5h0.9V13.7z M203.8,13.7v0.8h4.5v11.7
 h0.9V14.5h4.5v-0.8H203.8z M202.4,14.8c-0.4-0.4-0.9-0.7-1.4-0.9c-0.5-0.2-1.1-0.3-1.8-0.3c-0.6,0-1.1,0.1-1.6,0.3
 c-0.5,0.2-0.8,0.4-1.2,0.7s-0.5,0.6-0.7,1c-0.2,0.4-0.2,0.8-0.2,1.2c0,0.5,0.1,1,0.3,1.3c0.2,0.4,0.4,0.7,0.7,0.9
 c0.3,0.2,0.6,0.4,1,0.6c0.4,0.2,0.8,0.3,1.2,0.4c0.4,0.1,0.8,0.2,1.2,0.4c0.4,0.1,0.7,0.3,1,0.5c0.3,0.2,0.5,0.4,0.7,0.7
 c0.2,0.3,0.3,0.6,0.3,1.1c0,0.4-0.1,0.8-0.2,1.1c-0.1,0.4-0.4,0.7-0.6,0.9c-0.3,0.3-0.6,0.5-1,0.6c-0.4,0.1-0.8,0.2-1.3,0.2
 c-0.4,0-0.7,0-1-0.1c-0.3-0.1-0.5-0.2-0.8-0.3c-0.2-0.1-0.4-0.2-0.6-0.3c-0.2-0.1-0.3-0.2-0.4-0.3c-0.1-0.1-0.2-0.2-0.3-0.3
 c-0.1-0.1-0.2-0.1-0.2-0.1c-0.1,0-0.2,0-0.3,0.1l-0.3,0.4c0.5,0.5,1,0.9,1.6,1.2c0.6,0.3,1.3,0.4,2.2,0.4c0.6,0,1.2-0.1,1.7-0.3
 c0.5-0.2,0.9-0.5,1.3-0.8c0.3-0.3,0.6-0.7,0.8-1.2c0.2-0.5,0.3-1,0.3-1.5c0-0.5-0.1-0.9-0.3-1.3c-0.2-0.3-0.4-0.6-0.7-0.9
 c-0.3-0.2-0.6-0.4-1-0.6c-0.4-0.2-0.8-0.3-1.2-0.4c-0.4-0.1-0.8-0.3-1.2-0.4c-0.4-0.1-0.7-0.3-1-0.5c-0.3-0.2-0.5-0.4-0.7-0.7
 c-0.2-0.3-0.3-0.6-0.3-1c0-0.3,0.1-0.6,0.2-0.9c0.1-0.3,0.3-0.6,0.5-0.8c0.2-0.2,0.5-0.4,0.9-0.5c0.4-0.1,0.8-0.2,1.2-0.2
 c0.5,0,0.9,0.1,1.2,0.2c0.3,0.1,0.6,0.2,0.8,0.4c0.2,0.1,0.4,0.3,0.5,0.4c0.1,0.1,0.2,0.2,0.3,0.2c0.1,0,0.2,0,0.2-0.1L202.4,14.8
 z M181.9,13.7v12.5h7.6v-0.7h-6.7v-5.2h5.6v-0.7h-5.6v-5h6.7v-0.7H181.9z M178.2,13.7h-0.9v5.8h-8v-5.8h-0.9v12.5h0.9v-6h8v6h0.9
 V13.7z M164.9,24.1C164.8,24.1,164.8,24.1,164.9,24.1c-0.3,0.3-0.6,0.5-0.8,0.7c-0.3,0.2-0.5,0.3-0.8,0.4c-0.3,0.1-0.6,0.2-1,0.3
 c-0.4,0.1-0.8,0.1-1.2,0.1c-0.7,0-1.4-0.1-2-0.4c-0.6-0.3-1.2-0.6-1.6-1.1c-0.5-0.5-0.8-1.1-1.1-1.8c-0.3-0.7-0.4-1.5-0.4-2.4
 c0-0.9,0.1-1.6,0.4-2.3c0.3-0.7,0.6-1.3,1.1-1.8c0.5-0.5,1-0.9,1.7-1.1c0.6-0.3,1.4-0.4,2.1-0.4c0.4,0,0.8,0,1.1,0.1
 c0.3,0.1,0.6,0.1,0.9,0.2c0.3,0.1,0.5,0.2,0.7,0.3c0.2,0.1,0.3,0.2,0.5,0.3c0.1,0.1,0.2,0.2,0.3,0.2c0.1,0.1,0.2,0.1,0.2,0.1
 c0.1,0,0.2,0,0.2-0.1l0.3-0.4c-0.3-0.2-0.6-0.5-0.9-0.7c-0.3-0.2-0.6-0.3-0.9-0.5c-0.3-0.1-0.7-0.2-1.1-0.3
 c-0.4-0.1-0.8-0.1-1.3-0.1c-0.9,0-1.8,0.2-2.5,0.5c-0.8,0.3-1.4,0.7-2,1.3c-0.5,0.6-1,1.2-1.3,2c-0.3,0.8-0.5,1.6-0.5,2.6
 c0,1,0.1,1.8,0.4,2.6c0.3,0.8,0.7,1.5,1.2,2c0.5,0.6,1.2,1,1.9,1.3c0.7,0.3,1.5,0.5,2.4,0.5c0.5,0,1,0,1.4-0.1
 c0.4-0.1,0.8-0.2,1.2-0.4c0.4-0.2,0.7-0.3,1-0.6c0.3-0.2,0.6-0.5,0.9-0.7l-0.4-0.4C165.1,24.1,165,24.1,164.9,24.1
 C164.9,24.1,164.9,24.1,164.9,24.1 M152.7,14.8c-0.4-0.4-0.9-0.7-1.4-0.9c-0.5-0.2-1.1-0.3-1.8-0.3c-0.6,0-1.1,0.1-1.6,0.3
 c-0.5,0.2-0.8,0.4-1.2,0.7s-0.5,0.6-0.7,1c-0.2,0.4-0.2,0.8-0.2,1.2c0,0.5,0.1,1,0.3,1.3c0.2,0.4,0.4,0.7,0.7,0.9
 c0.3,0.2,0.6,0.4,1,0.6c0.4,0.2,0.8,0.3,1.2,0.4c0.4,0.1,0.8,0.2,1.2,0.4c0.4,0.1,0.7,0.3,1,0.5c0.3,0.2,0.5,0.4,0.7,0.7
 c0.2,0.3,0.3,0.6,0.3,1.1c0,0.4-0.1,0.8-0.2,1.1c-0.1,0.4-0.4,0.7-0.6,0.9c-0.3,0.3-0.6,0.5-1,0.6c-0.4,0.1-0.8,0.2-1.3,0.2
 c-0.4,0-0.7,0-1-0.1c-0.3-0.1-0.5-0.2-0.8-0.3c-0.2-0.1-0.4-0.2-0.6-0.3c-0.2-0.1-0.3-0.2-0.4-0.3c-0.1-0.1-0.2-0.2-0.3-0.3
 c-0.1-0.1-0.2-0.1-0.2-0.1c-0.1,0-0.2,0-0.3,0.1l-0.3,0.4c0.5,0.5,1,0.9,1.6,1.2c0.6,0.3,1.3,0.4,2.2,0.4c0.6,0,1.2-0.1,1.7-0.3
 c0.5-0.2,0.9-0.5,1.3-0.8c0.3-0.3,0.6-0.7,0.8-1.2c0.2-0.5,0.3-1,0.3-1.5c0-0.5-0.1-0.9-0.3-1.3c-0.2-0.3-0.4-0.6-0.7-0.9
 c-0.3-0.2-0.6-0.4-1-0.6c-0.4-0.2-0.8-0.3-1.2-0.4c-0.4-0.1-0.8-0.3-1.2-0.4c-0.4-0.1-0.7-0.3-1-0.5c-0.3-0.2-0.5-0.4-0.7-0.7
 c-0.2-0.3-0.3-0.6-0.3-1c0-0.3,0.1-0.6,0.2-0.9c0.1-0.3,0.3-0.6,0.5-0.8c0.2-0.2,0.5-0.4,0.9-0.5c0.4-0.1,0.8-0.2,1.2-0.2
 c0.5,0,0.9,0.1,1.2,0.2c0.3,0.1,0.6,0.2,0.8,0.4c0.2,0.1,0.4,0.3,0.5,0.4c0.1,0.1,0.2,0.2,0.3,0.2c0.1,0,0.2,0,0.2-0.1L152.7,14.8
 z M134.3,13.7v0.8h4.5v11.7h0.9V14.5h4.5v-0.8H134.3z M125.7,25.2c-0.5-0.2-0.9-0.5-1.2-0.9c-0.3-0.4-0.6-0.8-0.8-1.3
 c-0.2-0.5-0.3-1-0.3-1.6v-7.7h-0.9v7.7c0,0.7,0.1,1.3,0.3,1.9c0.2,0.6,0.5,1.1,1,1.6c0.4,0.4,0.9,0.8,1.5,1c0.6,0.3,1.3,0.4,2,0.4
 c0.7,0,1.4-0.1,2-0.4c0.6-0.3,1.1-0.6,1.5-1c0.4-0.4,0.7-1,1-1.6c0.2-0.6,0.3-1.2,0.3-1.9v-7.7h-0.9v7.7c0,0.6-0.1,1.1-0.3,1.6
 c-0.2,0.5-0.4,0.9-0.8,1.3c-0.3,0.4-0.7,0.7-1.2,0.9c-0.5,0.2-1,0.3-1.6,0.3C126.8,25.5,126.2,25.4,125.7,25.2 M112.1,13.7v12.5
 h7.6v-0.7H113v-5.2h5.6v-0.7H113v-5h6.7v-0.7H112.1z M107.8,22.3c-0.2,0.7-0.6,1.3-1,1.7c-0.4,0.5-1,0.8-1.6,1.1
 c-0.6,0.2-1.3,0.4-2.1,0.4h-3.7v-11h3.7c0.8,0,1.5,0.1,2.1,0.4c0.6,0.2,1.2,0.6,1.6,1.1c0.4,0.5,0.8,1,1,1.7
 c0.2,0.7,0.4,1.5,0.4,2.3C108.2,20.8,108,21.6,107.8,22.3 M108.7,17.4c-0.3-0.8-0.7-1.4-1.2-2c-0.5-0.5-1.2-1-1.9-1.2
 c-0.7-0.3-1.6-0.4-2.5-0.4h-4.6v12.5h4.6c0.9,0,1.7-0.1,2.5-0.4c0.7-0.3,1.4-0.7,1.9-1.2c0.5-0.5,0.9-1.2,1.2-2
 c0.3-0.8,0.4-1.6,0.4-2.6C109.1,19,109,18.1,108.7,17.4"></path> </g> <g> <g> <path class="st0" d="M38.6,79.5c-1,0-2,0-2.9-0.1c-4.7-0.5-10.7-1.8-16-8.3c-5.2-6.6-5.3-12.8-4.8-17.4
 c0.4-3.8,3.7-23.1,26.7-28.5c2.6-0.6,5.2-1.1,7.7-1.5c13.5-1.9,23.4,0.4,25.3,2.8c1.6,2,3.3,13.8-5.5,32.6
 c-7.2,15.3-19.4,19.1-26,20.1h0C41.6,79.4,40.1,79.5,38.6,79.5z M59.2,24.8c-2.8,0-6,0.2-9.5,0.7c-2.5,0.3-5,0.8-7.6,1.4
 c-21.9,5.1-25,23.3-25.3,26.9c-0.5,4.3-0.4,10,4.4,16.1c4.9,5.9,10.5,7.2,14.8,7.6c2.2,0.2,4.6,0.2,7-0.2h0
 c6.3-0.9,17.8-4.5,24.6-19c9-19.2,6.5-29.8,5.8-30.7C72.4,26.6,67.4,24.8,59.2,24.8z"></path> </g> <g> <path class="st1" d="M32.3,75.3c-4.4,0-8.4-1.2-12.3-3.8c-6.9-4.8-8.8-10.7-9.7-15.3C9.7,52.4,7.1,33,27.6,21.1
 c10.5-6.1,18.5-8.2,23.5-8.9c1.5-0.2,6.6-0.8,8.5,0.5c2.1,1.4,7.2,12.2,4.2,32.8c-3.3,23.5-22.3,28.4-26,29.1
 c-0.6,0.1-1.3,0.2-1.9,0.3l0,0C34.7,75.2,33.5,75.3,32.3,75.3z M55.3,13.7c-1.1,0-2.4,0.1-4,0.3c-4.8,0.7-12.6,2.7-22.8,8.6
 C9.1,34,11.5,52.3,12.2,55.8c0.8,4.3,2.6,9.7,8.9,14.1c4.5,3,9.2,4,14.6,3.3h0c0.6-0.1,1.2-0.2,1.8-0.3
 c3.5-0.7,21.4-5.4,24.6-27.6c3-21-2.6-30.4-3.4-31C58.2,14,57,13.7,55.3,13.7z"></path> </g> <g> <path d="M27.2,72.7c-2.2,0-4.3-0.3-6.7-1C12.5,69.1,9,64,6.8,59.9C5,56.5-3.1,38.7,13.1,21.3C24.6,8.8,34.9,4.5,39.2,3.9
 c0.9-0.1,1.5-0.1,2,0.1c2.4,0.7,10.4,9.6,13.6,30.1c3.7,23.4-13,33.7-16.4,35.5c-3,1.6-5.6,2.5-8.4,2.9l0,0
 C29.1,72.6,28.2,72.7,27.2,72.7z M40.2,5.6c-0.2,0-0.4,0-0.8,0.1c-4,0.6-13.8,4.7-25,16.9C-0.9,39,6.7,55.8,8.4,59
 c2,3.8,5.3,8.5,12.6,10.9c3.1,0.9,5.9,1.1,8.7,0.7c2.5-0.4,5-1.2,7.8-2.7c3.2-1.7,18.9-11.4,15.5-33.6C49.8,13.4,41.7,6,40.7,5.7
 C40.6,5.7,40.4,5.6,40.2,5.6z"></path> </g> </g> </g> </svg>