<?xml version="1.0" encoding="utf-8"?>
<!-- Generator: Adobe Illustrator 27.2.0, SVG Export Plug-In . SVG Version: 6.00 Build 0)  -->
<svg version="1.1" id="Layer_1" xmlns="http://www.w3.org/2000/svg" xmlns:xlink="http://www.w3.org/1999/xlink" x="0px" y="0px"
	 viewBox="0 0 789.41 543.09" style="enable-background:new 0 0 789.41 543.09;" xml:space="preserve">
<g>
	<circle cx="48.89" cy="516.23" r="26.53"/>
	<circle cx="26.53" cy="403.69" r="26.53"/>
	<circle cx="40.04" cy="289.75" r="26.53"/>
	<circle cx="155.92" cy="476.77" r="26.53"/>
	<circle cx="140.51" cy="399.23" r="26.53"/>
	<circle cx="149.81" cy="320.73" r="26.53"/>
	<circle cx="748.99" cy="290.04" r="26.53"/>
	<circle cx="762.88" cy="403.94" r="26.53"/>
	<circle cx="740.9" cy="516.55" r="26.53"/>
	<circle cx="639.32" cy="321.39" r="26.53"/>
	<circle cx="648.89" cy="399.86" r="26.53"/>
	<circle cx="633.74" cy="477.45" r="26.53"/>
	<circle cx="118.7" cy="149.83" r="26.53"/>
	<circle cx="206.94" cy="76.48" r="26.53"/>
	<circle cx="313.53" cy="34" r="26.53"/>
	<circle cx="428.02" cy="26.53" r="26.53"/>
	<circle cx="539.23" cy="54.81" r="26.53"/>
	<circle cx="204.44" cy="225.06" r="26.53"/>
	<circle cx="265.23" cy="174.53" r="26.53"/>
	<circle cx="338.67" cy="145.26" r="26.53"/>
	<circle cx="417.55" cy="140.11" r="26.53"/>
	<circle cx="494.17" cy="159.6" r="26.53"/>
	<circle cx="677.48" cy="153.54" r="26.53"/>
	<circle cx="586.7" cy="222.61" r="26.53"/>
	<polyline points="506.37,394.26 328.5,283.22 328.5,505.29 	"/>
</g>
</svg>
