<?xml version="1.0" standalone="no"?>
<!DOCTYPE svg PUBLIC "-//W3C//DTD SVG 20010904//EN"
 "http://www.w3.org/TR/2001/REC-SVG-20010904/DTD/svg10.dtd">
<svg version="1.0" xmlns="http://www.w3.org/2000/svg"
 width="200.000000pt" height="200.000000pt" viewBox="0 0 200.000000 200.000000"
 preserveAspectRatio="xMidYMid meet">
<metadata>
Created by potrace 1.14, written by Peter Selinger 2001-2017
</metadata>
<g transform="translate(0.000000,200.000000) scale(0.100000,-0.100000)"
fill="#000000" stroke="none">
<path d="M1036 1914 c-21 -20 -21 -78 0 -98 21 -22 77 -20 97 2 22 25 21 75
-1 95 -23 21 -76 22 -96 1z"/>
<path d="M781 1907 c-14 -6 -29 -25 -34 -41 -21 -62 66 -113 112 -67 54 54
-10 143 -78 108z"/>
<path d="M1297 1842 c-22 -25 -21 -75 1 -95 25 -22 75 -21 95 1 21 23 22 76 1
96 -21 22 -77 20 -97 -2z"/>
<path d="M516 1796 c-31 -30 -33 -69 -6 -96 29 -29 74 -26 99 6 26 33 26 55 4
82 -30 35 -68 38 -97 8z"/>
<path d="M1007 1642 c-22 -25 -21 -75 1 -95 19 -17 68 -22 88 -9 20 13 35 52
29 72 -16 50 -85 68 -118 32z"/>
<path d="M820 1630 c-24 -24 -26 -57 -4 -88 21 -31 87 -31 108 0 34 48 4 108
-54 108 -17 0 -39 -9 -50 -20z"/>
<path d="M296 1618 c-36 -51 -7 -108 54 -108 43 0 70 26 70 67 0 57 -92 87
-124 41z"/>
<path d="M1626 1611 c-12 -13 -16 -32 -14 -57 2 -31 9 -42 31 -52 48 -23 97 7
97 59 0 59 -76 92 -114 50z"/>
<path d="M1196 1599 c-50 -39 -22 -119 43 -119 33 0 71 39 71 72 0 24 -44 68
-68 68 -11 0 -31 -9 -46 -21z"/>
<path d="M647 1562 c-22 -25 -21 -75 1 -95 23 -21 76 -22 96 -1 21 20 21 78 0
98 -21 22 -77 20 -97 -2z"/>
<path d="M1416 1449 c-32 -25 -35 -70 -6 -99 42 -42 113 -11 113 50 0 22 -7
39 -22 52 -30 23 -52 23 -85 -3z"/>
<path d="M502 1448 c-18 -24 -23 -57 -11 -80 16 -31 28 -38 66 -38 55 0 86 76
45 113 -22 20 -85 22 -100 5z"/>
<path d="M124 1302 c-37 -24 -39 -93 -4 -112 73 -39 141 32 94 98 -15 22 -66
30 -90 14z"/>
<path d="M1810 1297 c-13 -7 -29 -25 -34 -40 -22 -61 67 -114 113 -68 53 53
-12 142 -79 108z"/>
<path d="M846 1158 c-3 -57 -9 -179 -12 -272 l-7 -169 54 30 c30 17 134 74
232 128 97 53 177 100 177 104 0 6 -423 281 -432 281 -3 0 -8 -46 -12 -102z"/>
<path d="M375 1215 c-14 -13 -25 -33 -25 -45 0 -28 43 -70 73 -70 32 0 67 35
67 68 0 33 -8 45 -37 61 -33 17 -51 14 -78 -14z"/>
<path d="M1538 1220 c-25 -15 -33 -66 -14 -95 22 -34 88 -35 110 -3 34 48 7
108 -47 108 -18 0 -40 -5 -49 -10z"/>
<path d="M350 1030 c-24 -24 -26 -57 -4 -88 22 -32 88 -31 110 3 19 30 11 81
-16 95 -30 16 -68 12 -90 -10z"/>
<path d="M1570 1037 c-32 -16 -40 -79 -14 -108 38 -42 114 -9 114 49 0 33 -8
45 -37 61 -27 14 -32 14 -63 -2z"/>
<path d="M76 1018 c-36 -51 -7 -108 54 -108 49 0 75 32 65 80 -12 52 -89 71
-119 28z"/>
<path d="M1840 1027 c-19 -9 -26 -22 -28 -51 -4 -46 19 -76 60 -76 64 0 92 80
42 119 -31 24 -40 25 -74 8z"/>
<path d="M392 854 c-16 -11 -22 -25 -22 -54 0 -29 6 -43 22 -54 51 -36 108 -7
108 54 0 42 -26 70 -65 70 -11 0 -31 -7 -43 -16z"/>
<path d="M1517 842 c-22 -25 -21 -75 1 -95 23 -21 76 -22 96 -1 9 8 16 31 16
49 0 18 -7 41 -16 49 -21 22 -77 20 -97 -2z"/>
<path d="M150 767 c-13 -7 -29 -25 -34 -40 -22 -61 67 -114 113 -68 53 53 -12
142 -79 108z"/>
<path d="M1771 744 c-12 -15 -21 -35 -21 -46 0 -25 44 -68 70 -68 28 0 70 43
70 73 0 31 -39 67 -72 67 -17 0 -34 -10 -47 -26z"/>
</g>
</svg>
